<svg width="306" height="86" viewBox="0 0 306 86" fill="none" xmlns="http://www.w3.org/2000/svg">
<path fill-rule="evenodd" clip-rule="evenodd" d="M294.626 53.1654C294.626 53.2701 294.553 53.3549 294.463 53.3549C291.938 53.3549 290.592 54.0052 288.44 55.0448C288.272 55.1261 288.099 55.2097 287.92 55.2956C287.62 55.4395 287.279 55.3507 286.938 55.1468C286.593 54.9408 286.217 54.5991 285.825 54.1712C285.04 53.3143 284.161 52.0789 283.303 50.7858C282.727 49.9186 282.158 49.0197 281.63 48.187C281.371 47.7777 281.121 47.3844 280.887 47.0187C280.529 46.4623 280.206 45.9699 279.928 45.5784C279.648 45.183 279.425 44.9038 279.267 44.7631C275.05 41.0054 269.157 44.0653 268.148 49.3578C267.9 50.6615 267.631 51.6408 267.339 52.359C267.048 53.0761 266.726 53.5479 266.364 53.816C265.625 54.3633 264.804 54.0056 263.969 53.483C263.72 53.3271 263.467 53.1549 263.208 52.9785C262.569 52.5442 261.893 52.0847 261.151 51.7814C260.124 51.3615 258.995 51.2566 257.735 51.9909C257.35 52.2151 256.808 52.75 256.201 53.4472C255.598 54.1388 254.946 54.9723 254.343 55.7745C253.741 56.5752 253.189 57.3423 252.786 57.9029L252.785 57.9051C252.583 58.185 252.418 58.4144 252.303 58.5697C252.246 58.6469 252.199 58.7085 252.166 58.7495C252.15 58.7686 252.132 58.7893 252.116 58.805L252.115 58.8055C252.11 58.8106 252.09 58.8301 252.061 58.8425C252.05 58.8473 252.002 58.8684 251.944 58.8428C251.867 58.8087 251.843 58.7287 251.839 58.6872C251.638 56.8105 250.734 54.7873 249.462 53.309C248.189 51.8298 246.572 50.9234 244.948 51.2145C242.321 51.6855 240.803 53.5333 239.538 55.7565C239.134 56.4676 238.76 57.2084 238.383 57.9542C238.167 58.3813 237.951 58.81 237.727 59.2358C237.118 60.3971 236.463 61.5213 235.654 62.4632C235.554 62.5797 235.443 62.6544 235.321 62.6812C235.199 62.7079 235.082 62.6839 234.974 62.6333C234.767 62.5357 234.573 62.3269 234.4 62.1151C234.312 62.0066 234.225 61.891 234.141 61.7799L234.14 61.7788C234.056 61.667 233.975 61.5599 233.896 61.4632C233.817 61.366 233.743 61.2836 233.674 61.2208C233.604 61.1571 233.547 61.1212 233.503 61.1063C232.893 60.9032 232.074 60.8567 231.243 60.9093C230.415 60.9618 229.589 61.1117 228.973 61.2912C227.985 61.5791 226.731 62.3367 225.33 63.3019C224.569 63.8259 223.779 64.4019 222.97 64.991C222.284 65.4902 221.586 65.9988 220.882 66.4931C219.359 67.5631 217.832 68.5506 216.438 69.1654C215.051 69.7775 213.761 70.0357 212.731 69.5936C211.944 69.2555 211.249 68.8944 210.595 68.5446C210.48 68.4832 210.367 68.4222 210.254 68.3618C209.725 68.0771 209.219 67.805 208.701 67.5609C207.452 66.972 206.145 66.5507 204.347 66.5507C203.521 66.5507 203.055 66.7565 202.745 67.0112C202.589 67.1401 202.466 67.2863 202.355 67.4386C202.306 67.5051 202.26 67.5714 202.214 67.6387L202.192 67.6702C202.139 67.7473 202.084 67.8258 202.026 67.9003C201.91 68.0501 201.778 68.1914 201.604 68.293C201.429 68.3952 201.222 68.4513 200.964 68.4487C200.455 68.4437 199.733 68.2107 198.62 67.634C196.957 66.7727 195.464 65.3933 193.989 63.9626C193.816 63.7954 193.644 63.6275 193.472 63.4596C192.166 62.1851 190.859 60.9098 189.429 59.9265C188.961 59.6048 188.134 58.9027 187.09 58.0157C186.726 57.7066 186.335 57.375 185.924 57.0293C184.327 55.6856 182.408 54.116 180.489 52.7761C178.566 51.434 176.656 50.3321 175.076 49.9117C174.286 49.7016 173.593 49.6656 173.027 49.842C172.467 50.0163 172.024 50.3999 171.726 51.0548C170.83 53.0287 170.893 55.2016 170.958 57.421C170.963 57.5943 170.968 57.7679 170.973 57.9417C171.037 60.3214 171.013 62.7318 169.614 64.8281C167.666 67.7477 166.293 71.3593 166.293 75.1584C166.293 76.1242 166.052 78.986 165.689 81.4831C165.508 82.7316 165.294 83.9013 165.062 84.7024C164.947 85.0983 164.822 85.4266 164.682 85.627C164.612 85.727 164.524 85.8173 164.414 85.8494C164.292 85.8848 164.179 85.8401 164.087 85.7506C163.201 84.8904 161.726 84.4648 159.941 84.2542C158.414 84.074 156.69 84.0536 154.968 84.0332C154.685 84.0299 154.401 84.0265 154.119 84.0224C152.126 83.9938 150.177 83.9298 148.61 83.5727C147.053 83.2178 145.814 82.5601 145.327 81.2834C145.025 80.4903 144.899 79.7237 144.811 79.0269C144.791 78.8669 144.773 78.7118 144.755 78.5615C144.696 78.0483 144.643 77.5909 144.534 77.1821C144.396 76.6671 144.174 76.2509 143.744 75.9417C143.307 75.6271 142.638 75.412 141.588 75.3476C140.1 75.2564 139.091 74.9483 138.408 74.4249C137.715 73.895 137.374 73.1592 137.193 72.2709C137.037 71.5049 136.998 70.6092 136.954 69.6228C136.948 69.4802 136.941 69.3357 136.934 69.1895C136.88 68.0233 136.797 66.7234 136.51 65.305C136.464 65.0766 136.417 64.7382 136.364 64.354C136.348 64.2418 136.332 64.1258 136.315 64.0074C136.24 63.4771 136.15 62.8894 136.03 62.356C135.91 61.8176 135.765 61.3563 135.588 61.0655C135.501 60.9214 135.414 60.833 135.33 60.7906C135.251 60.751 135.162 60.7446 135.05 60.7952C132.345 62.0212 129.563 62.8793 126.772 63.7399L126.593 63.7953C124.388 64.4754 122.874 64.8434 121.806 64.898C120.732 64.9528 120.073 64.6922 119.62 64.0737C119.399 63.7723 119.235 63.3966 119.092 62.9598C118.948 62.5234 118.822 62.0138 118.681 61.4413L118.664 61.3696C118.384 60.2335 118.039 58.8286 117.386 57.1537C116.821 55.7051 116.038 54.7123 115.143 53.8232C114.743 53.425 114.322 53.0492 113.887 52.661C113.835 52.6143 113.782 52.5675 113.73 52.5203C113.24 52.0828 112.736 51.626 112.236 51.1078C111.873 50.7313 111.3 50.337 110.626 49.9183C110.33 49.7346 110.01 49.5433 109.683 49.3477C109.281 49.1075 108.869 48.861 108.478 48.6142C107.759 48.1608 107.071 47.6821 106.547 47.1745C106.028 46.6715 105.64 46.1121 105.577 45.49C105.451 44.2397 105.026 43.6633 104.483 43.4552C103.915 43.2379 103.162 43.3969 102.343 43.7778C100.713 44.5358 98.9605 46.104 98.239 46.7766C97.3593 47.5968 96.4888 48.3966 95.6299 49.1858C89.339 54.9658 83.6686 60.1758 79.511 68.6545L79.4799 68.718C79.0988 69.4962 77.7753 72.1985 76.4928 73.9388C76.1622 74.3875 75.8295 74.779 75.512 75.0581C75.1993 75.3331 74.8775 75.5204 74.573 75.5128C74.2471 75.5046 73.9886 75.2768 73.8111 74.8553C73.6375 74.4429 73.53 73.8243 73.4933 72.9686C73.3831 70.3996 72.5723 67.6534 71.5244 64.9864C70.7059 62.9032 69.748 60.8808 68.8746 59.037C68.63 58.5205 68.3921 58.0181 68.1656 57.5323C63.9004 48.3802 59.172 38.9507 51.7545 32.9162C51.2163 32.4784 50.7352 32.0969 50.2989 31.7509C49.1365 30.8292 48.2917 30.1592 47.5315 29.3472C46.4786 28.2225 45.5866 26.8262 44.2111 24.1213C44.1096 23.9216 44.0076 23.7204 43.9051 23.5182C42.5016 20.7496 41.0019 17.7912 39.1528 15.7509C38.1634 14.6593 37.0813 13.8393 35.8691 13.4519C34.6592 13.0652 33.308 13.1055 31.7725 13.7562C31.2376 13.9828 30.6655 14.4426 30.0833 15.0517C29.5026 15.659 28.9207 16.4054 28.3657 17.1928C27.4601 18.4776 26.6339 19.8599 26.0062 20.9102C25.864 21.1483 25.7319 21.3692 25.6114 21.5682C21.1286 28.9688 15.3848 34.7396 9.57324 40.5783C8.63742 41.5185 7.69983 42.4605 6.76544 43.4113C6.69781 43.4802 6.59509 43.4721 6.53601 43.3932C6.47696 43.3144 6.48392 43.1947 6.55157 43.1259C7.48874 42.1722 8.42807 41.2284 9.36471 40.2872C15.1777 34.4466 20.8878 28.7091 25.3457 21.3496C25.4644 21.1536 25.5952 20.9347 25.7365 20.6983C26.3642 19.6481 27.1997 18.25 28.1144 16.9523C28.6752 16.1567 29.2687 15.3945 29.866 14.7696C30.4617 14.1465 31.0701 13.6505 31.6614 13.4C33.2542 12.725 34.6744 12.6771 35.9551 13.0864C37.2336 13.4951 38.3611 14.3555 39.3764 15.4757C41.2604 17.5545 42.7825 20.5579 44.1794 23.3141C44.2839 23.5203 44.3877 23.7252 44.4909 23.9281C45.8614 26.6232 46.734 27.9812 47.7512 29.0678C48.4929 29.86 49.3106 30.5085 50.4628 31.4222C50.902 31.7705 51.3898 32.1574 51.9406 32.6055C59.4289 38.6975 64.1887 48.2048 68.4514 57.3514C68.6757 57.8326 68.9121 58.3318 69.1557 58.8461C70.0299 60.6915 70.9958 62.7309 71.8201 64.8287C72.8739 67.5108 73.7048 70.309 73.8181 72.9497C73.8541 73.7879 73.9586 74.3452 74.1031 74.6883C74.2437 75.0223 74.4092 75.1296 74.58 75.1339C74.7724 75.1387 75.02 75.0159 75.3161 74.7556C75.6073 74.4996 75.9227 74.1308 76.2461 73.6919C77.5073 71.9805 78.8179 69.3051 79.1992 68.5266L79.2287 68.4665C83.4196 59.9197 89.1421 54.6628 95.4301 48.8864C96.289 48.0974 97.1584 47.2987 98.0359 46.4807C98.7565 45.8088 100.543 44.207 102.223 43.4259C103.058 43.0373 103.903 42.8344 104.584 43.0951C105.289 43.365 105.765 44.1064 105.9 45.4458C105.948 45.9176 106.252 46.3958 106.755 46.8831C107.253 47.3657 107.917 47.8299 108.632 48.2809C109.029 48.531 109.429 48.7698 109.822 49.0048C110.147 49.199 110.468 49.3906 110.779 49.5839C111.452 50.0018 112.056 50.4145 112.452 50.8245C112.943 51.3329 113.439 51.7825 113.928 52.2197C113.98 52.2668 114.033 52.3137 114.086 52.3606C114.519 52.7479 114.947 53.1299 115.354 53.5349C116.271 54.4459 117.091 55.4811 117.682 56.9969C118.346 58.6976 118.696 60.125 118.975 61.2619L118.994 61.3369C119.135 61.9131 119.258 62.4062 119.395 62.8244C119.532 63.2421 119.68 63.5728 119.867 63.8275C120.229 64.3212 120.768 64.5716 121.792 64.5193C122.821 64.4668 124.303 64.1094 126.509 63.4289L126.682 63.3758C129.477 62.5136 132.244 61.6602 134.932 60.442C135.117 60.3583 135.295 60.3603 135.459 60.4428C135.617 60.5226 135.747 60.6701 135.854 60.8464C136.066 61.1965 136.223 61.7144 136.345 62.2605C136.468 62.8116 136.56 63.4137 136.636 63.9455C136.654 64.0699 136.67 64.19 136.686 64.3045C136.739 64.685 136.784 65.004 136.827 65.2182C137.12 66.6704 137.204 67.9977 137.259 69.1688C137.266 69.3169 137.273 69.4621 137.279 69.6046C137.323 70.5967 137.361 71.4536 137.51 72.1834C137.677 73.0063 137.982 73.6456 138.586 74.1082C139.199 74.5772 140.139 74.8793 141.605 74.9692C142.679 75.035 143.41 75.2564 143.915 75.6192C144.427 75.9875 144.69 76.4898 144.844 77.0695C144.962 77.5117 145.02 78.0118 145.08 78.5314C145.097 78.677 145.114 78.8242 145.133 78.972C145.219 79.6571 145.34 80.3835 145.624 81.1295C146.041 82.2222 147.13 82.8491 148.673 83.2007C150.206 83.5502 152.126 83.6148 154.123 83.6435C154.404 83.6475 154.686 83.6509 154.969 83.6542C156.69 83.6745 158.431 83.695 159.974 83.8771C161.763 84.0883 163.328 84.52 164.295 85.4595C164.326 85.489 164.335 85.4818 164.335 85.4817C164.347 85.4784 164.379 85.4604 164.43 85.3881C164.53 85.2439 164.641 84.9716 164.754 84.5812C164.977 83.8098 165.187 82.6645 165.368 81.4199C165.73 78.9306 165.968 76.0929 165.968 75.1584C165.968 71.2533 167.377 67.5621 169.357 64.5954C170.678 62.6174 170.712 60.337 170.648 57.9534C170.643 57.7753 170.638 57.5965 170.633 57.4172C170.567 55.2178 170.5 52.9449 171.439 50.8775C171.78 50.1262 172.299 49.6765 172.943 49.4759C173.58 49.2774 174.332 49.325 175.148 49.5422C176.781 49.9765 178.727 51.1046 180.656 52.451C182.588 53.7995 184.516 55.3769 186.115 56.722C186.535 57.0753 186.931 57.4118 187.298 57.7237C188.335 58.6043 189.141 59.2885 189.594 59.6001C191.049 60.6004 192.378 61.8972 193.681 63.1693C193.854 63.3373 194.025 63.5049 194.197 63.6714C195.673 65.1034 197.135 66.4503 198.752 67.2877C199.858 67.8609 200.529 68.0654 200.966 68.0698C201.181 68.0719 201.336 68.0257 201.458 67.9542C201.582 67.8819 201.683 67.7779 201.785 67.6466C201.836 67.5805 201.886 67.5094 201.939 67.4324C201.991 67.3565 202.047 67.2744 202.108 67.1925C202.229 67.0272 202.371 66.8555 202.558 66.7017C202.935 66.3909 203.472 66.1717 204.347 66.1717C206.195 66.1717 207.545 66.6068 208.823 67.2096C209.349 67.4574 209.863 67.7342 210.393 68.019C210.505 68.0791 210.617 68.1395 210.731 68.2002C211.383 68.5489 212.068 68.9051 212.844 69.238C213.759 69.6307 214.953 69.4155 216.323 68.811C217.688 68.209 219.194 67.2366 220.714 66.1685C221.405 65.6836 222.102 65.1755 222.79 64.675C223.606 64.081 224.407 63.4975 225.164 62.9757C226.564 62.0114 227.855 61.2264 228.895 60.9235C229.532 60.7378 230.378 60.5846 231.225 60.5309C232.07 60.4774 232.931 60.5218 233.592 60.7419C233.694 60.7757 233.788 60.844 233.874 60.9223C233.961 61.0016 234.048 61.0992 234.132 61.2022C234.215 61.3043 234.299 61.416 234.382 61.5257L234.385 61.5295C234.47 61.6416 234.553 61.7518 234.636 61.8543C234.807 62.0644 234.96 62.2178 235.096 62.282C235.161 62.3123 235.214 62.319 235.26 62.3088C235.307 62.2987 235.361 62.2686 235.424 62.1952C236.205 61.2856 236.844 60.192 237.45 59.038C237.667 58.6244 237.881 58.201 238.096 57.776C238.476 57.0232 238.859 56.2652 239.267 55.5471C240.553 53.2864 242.139 51.3347 244.898 50.8399C246.661 50.524 248.376 51.5118 249.692 53.0406C250.921 54.4697 251.825 56.3951 252.111 58.2496C252.219 58.1012 252.363 57.9011 252.535 57.6617L252.538 57.6587C252.94 57.0984 253.494 56.3286 254.098 55.5247C254.704 54.7197 255.362 53.8783 255.973 53.1772C256.579 52.4817 257.153 51.9061 257.589 51.6519C258.946 50.8617 260.169 50.9782 261.259 51.4238C262.032 51.7398 262.752 52.2293 263.4 52.6698C263.652 52.8414 263.894 53.0056 264.123 53.1491C264.969 53.6783 265.625 53.9146 266.19 53.4961C266.48 53.2813 266.768 52.8802 267.045 52.1967C267.323 51.5144 267.585 50.5655 267.831 49.2756C268.888 43.7305 275.047 40.5254 279.464 44.4621C279.655 44.632 279.899 44.9423 280.179 45.3371C280.462 45.7359 280.789 46.2343 281.147 46.7916C281.384 47.1611 281.635 47.5565 281.895 47.9669C282.421 48.7977 282.987 49.69 283.56 50.554C284.416 51.845 285.282 53.0598 286.047 53.8946C286.43 54.3126 286.781 54.627 287.086 54.8096C287.395 54.9942 287.627 55.0262 287.796 54.9452C287.976 54.8587 288.151 54.7744 288.321 54.6923C290.473 53.6522 291.872 52.976 294.463 52.976C294.553 52.976 294.626 53.0608 294.626 53.1654Z" fill="white"/>
<path d="M24.573 3.79193H25.4796C26.0293 3.79193 26.2776 3.47298 26.2776 3.0504C26.2776 2.62378 26.0212 2.38289 25.7868 2.36808V2.34117C26.0039 2.27657 26.1852 2.10431 26.1852 1.75979C26.1852 1.35201 25.9427 1.03575 25.4392 1.03575H24.573V3.79193ZM24.9299 3.4353V2.55246H25.4577C25.7441 2.55246 25.9231 2.76778 25.9231 3.03021C25.9231 3.26169 25.7879 3.4353 25.4449 3.4353H24.9299ZM24.9299 2.22812V1.38969H25.4172C25.7002 1.38969 25.8353 1.5633 25.8353 1.79208C25.8353 2.05855 25.6482 2.22812 25.408 2.22812H24.9299Z" fill="white"/>
<path d="M27.1886 3.79193H28.6853V3.43395H27.5455V2.59014H28.5941V2.2335H27.5455V1.39373H28.6715V1.03575H27.1886V3.79193Z" fill="white"/>
<path d="M29.4569 3.79193H29.5586C30.0967 3.79193 30.226 3.32629 30.2572 2.44076L30.2942 1.38835H31.1014V3.79193H31.4536V1.03575H29.9581L29.9177 2.3304C29.8923 3.12846 29.8092 3.42049 29.5262 3.42857L29.4569 3.43126V3.79193Z" fill="white"/>
<path d="M32.4611 1.03575V3.79193H32.7891L33.9913 1.77055H34.0132V3.79193H34.3701V1.03575H34.0398L32.8365 3.05982H32.8145V1.03575H32.4611Z" fill="white"/>
<path d="M36.7793 3.79193H37.2146L36.2388 2.28195L37.2204 1.03575H36.7781L35.8577 2.19986H35.7353V1.03575H35.3784V3.79193H35.7353V2.55649H35.9801L36.7793 3.79193Z" fill="white"/>
<path d="M38.0639 1.03575V3.79193H38.3919L39.5941 1.77055H39.616V3.79193H39.9729V1.03575H39.6426L38.4392 3.05982H38.4173V1.03575H38.0639Z" fill="white"/>
<path d="M40.9812 1.03575V3.79193H41.3092L42.5114 1.77055H42.5333V3.79193H42.8902V1.03575H42.5599L41.3565 3.05982H41.3346V1.03575H40.9812ZM42.1626 0.335938C42.1626 0.471863 42.0979 0.591638 41.9363 0.591638C41.7723 0.591638 41.7111 0.470517 41.7111 0.335938H41.4281C41.4281 0.638741 41.6256 0.847338 41.9363 0.847338C42.2492 0.847338 42.4467 0.638741 42.4467 0.335938H42.1626Z" fill="white"/>
<path d="M23.0938 8.33963H23.4506V7.13784H24.6297V8.33963H24.9877V5.58345H24.6297V6.7812H23.4506V5.58345H23.0938V8.33963Z" fill="white"/>
<path d="M28.0496 6.96154C28.0496 6.08005 27.5969 5.54577 26.9849 5.54577C26.3705 5.54577 25.919 6.08005 25.919 6.96154C25.919 7.84169 26.3705 8.37731 26.9849 8.37731C27.5969 8.37731 28.0496 7.84303 28.0496 6.96154ZM27.6963 6.96154C27.6963 7.63309 27.3914 7.9978 26.9849 7.9978C26.5772 7.9978 26.2735 7.63309 26.2735 6.96154C26.2735 6.28999 26.5772 5.92528 26.9849 5.92528C27.3914 5.92528 27.6963 6.28999 27.6963 6.96154Z" fill="white"/>
<path d="M28.9823 8.33963H29.8889C30.4386 8.33963 30.6869 8.02068 30.6869 7.5981C30.6869 7.17148 30.4305 6.93059 30.1961 6.91578V6.88887C30.4132 6.82427 30.5945 6.65201 30.5945 6.30748C30.5945 5.89971 30.352 5.58345 29.8485 5.58345H28.9823V8.33963ZM29.3392 7.983V7.10016H29.867C30.1534 7.10016 30.3324 7.31548 30.3324 7.57791C30.3324 7.80939 30.1972 7.983 29.8542 7.983H29.3392ZM29.3392 6.77582V5.93739H29.8265C30.1095 5.93739 30.2446 6.111 30.2446 6.33978C30.2446 6.60625 30.0575 6.77582 29.8173 6.77582H29.3392Z" fill="white"/>
<path d="M33.0727 5.58345H31.5979V8.33963H31.9548V5.94143H33.0727V5.58345Z" fill="white"/>
<path d="M35.9187 6.96154C35.9187 6.08005 35.466 5.54577 34.8539 5.54577C34.2395 5.54577 33.788 6.08005 33.788 6.96154C33.788 7.84169 34.2395 8.37731 34.8539 8.37731C35.466 8.37731 35.9187 7.84303 35.9187 6.96154ZM35.5653 6.96154C35.5653 7.63309 35.2604 7.9978 34.8539 7.9978C34.4462 7.9978 34.1425 7.63309 34.1425 6.96154C34.1425 6.28999 34.4462 5.92528 34.8539 5.92528C35.2604 5.92528 35.5653 6.28999 35.5653 6.96154Z" fill="white"/>
<path d="M36.8514 8.33963H37.2082V7.37066H37.6933C38.2418 7.37066 38.5132 6.98442 38.5132 6.47571C38.5132 5.96835 38.2441 5.58345 37.6944 5.58345H36.8514V8.33963ZM37.2082 7.01806V5.94008H37.6563C38.0097 5.94008 38.154 6.16349 38.154 6.47571C38.154 6.78793 38.0097 7.01806 37.6609 7.01806H37.2082Z" fill="white"/>
<path d="M41.4738 6.96154C41.4738 6.08005 41.0211 5.54577 40.409 5.54577C39.7947 5.54577 39.3431 6.08005 39.3431 6.96154C39.3431 7.84169 39.7947 8.37731 40.409 8.37731C41.0211 8.37731 41.4738 7.84303 41.4738 6.96154ZM41.1204 6.96154C41.1204 7.63309 40.8155 7.9978 40.409 7.9978C40.0014 7.9978 39.6977 7.63309 39.6977 6.96154C39.6977 6.28999 40.0014 5.92528 40.409 5.92528C40.8155 5.92528 41.1204 6.28999 41.1204 6.96154Z" fill="white"/>
<path d="M42.2275 9.0058H42.5693V8.33963H44.1572V9.00176H44.4991V7.98703H44.2312V5.58345H42.7726L42.7172 6.74756C42.6814 7.51466 42.5416 7.83092 42.3834 7.98703H42.2275V9.0058ZM42.8038 7.98703C42.9389 7.73537 43.0301 7.33029 43.059 6.74756L43.0959 5.94143H43.8893V7.98703H42.8038Z" fill="white"/>
<path d="M2.39203 47.649H0.567383V50.4052H0.923074V48.0043H2.03634V50.4052H2.39203V47.649Z" fill="white"/>
<path d="M5.38988 48.5453C5.30904 47.9559 4.91293 47.6113 4.41289 47.6113C3.80082 47.6113 3.34928 48.1456 3.34928 49.0271C3.34928 49.9086 3.79851 50.4429 4.41289 50.4429C4.93257 50.4429 5.31251 50.0634 5.38988 49.5183L5.02957 49.517C4.96837 49.8696 4.7143 50.0634 4.4152 50.0634C4.00985 50.0634 3.70382 49.7013 3.70382 49.0271C3.70382 48.3582 4.00869 47.9908 4.41635 47.9908C4.71777 47.9908 4.97068 48.1887 5.02957 48.5453H5.38988Z" fill="white"/>
<path d="M7.70551 50.4052H8.14089L7.16505 48.8952L8.14666 47.649H7.70436L6.78395 48.8131H6.66154V47.649H6.30469V50.4052H6.66154V49.1698H6.90636L7.70551 50.4052Z" fill="white"/>
<path d="M10.9271 49.0271C10.9271 48.1456 10.4744 47.6113 9.86235 47.6113C9.24798 47.6113 8.79643 48.1456 8.79643 49.0271C8.79643 49.9072 9.24798 50.4429 9.86235 50.4429C10.4744 50.4429 10.9271 49.9086 10.9271 49.0271ZM10.5737 49.0271C10.5737 49.6987 10.2689 50.0634 9.86235 50.0634C9.45469 50.0634 9.15097 49.6987 9.15097 49.0271C9.15097 48.3556 9.45469 47.9908 9.86235 47.9908C10.2689 47.9908 10.5737 48.3556 10.5737 49.0271Z" fill="white"/>
<path d="M11.8598 50.4052H12.7664C13.3161 50.4052 13.5644 50.0862 13.5644 49.6637C13.5644 49.237 13.308 48.9961 13.0736 48.9813V48.9544C13.2907 48.8898 13.472 48.7176 13.472 48.373C13.472 47.9653 13.2295 47.649 12.726 47.649H11.8598V50.4052ZM12.2167 50.0486V49.1657H12.7444C13.0308 49.1657 13.2098 49.381 13.2098 49.6435C13.2098 49.8749 13.0747 50.0486 12.7317 50.0486H12.2167ZM12.2167 48.8414V48.003H12.704C12.9869 48.003 13.1221 48.1766 13.1221 48.4053C13.1221 48.6718 12.935 48.8414 12.6948 48.8414H12.2167Z" fill="white"/>
<path d="M53.6445 58.2388H54.3813V60.637H54.737V58.2388H55.475V57.8809H53.6445V58.2388Z" fill="white"/>
<path d="M56.3672 60.637H57.2738C57.8235 60.637 58.0718 60.3181 58.0718 59.8955C58.0718 59.4689 57.8154 59.228 57.581 59.2132V59.1863C57.7981 59.1217 57.9794 58.9494 57.9794 58.6049C57.9794 58.1971 57.7369 57.8809 57.2334 57.8809H56.3672V60.637ZM56.7241 60.2804V59.3976H57.2519C57.5383 59.3976 57.7173 59.6129 57.7173 59.8753C57.7173 60.1068 57.5821 60.2804 57.2391 60.2804H56.7241ZM56.7241 59.0732V58.2348H57.2114C57.4944 58.2348 57.6295 58.4084 57.6295 58.6372C57.6295 58.9037 57.4424 59.0732 57.2022 59.0732H56.7241Z" fill="white"/>
<path d="M58.9828 60.637H60.4795V60.2791H59.3397V59.4352H60.3883V59.0786H59.3397V58.2388H60.4657V57.8809H58.9828V60.637Z" fill="white"/>
<path d="M61.4301 60.637H61.787V59.6681H62.272C62.8206 59.6681 63.0919 59.2818 63.0919 58.7731C63.0919 58.2658 62.8229 57.8809 62.2732 57.8809H61.4301V60.637ZM61.787 59.3155V58.2375H62.235C62.5884 58.2375 62.7328 58.4609 62.7328 58.7731C62.7328 59.0853 62.5884 59.3155 62.2397 59.3155H61.787Z" fill="white"/>
<path d="M64.3584 58.9925V57.8809H64.0004V60.637H64.8862C65.4128 60.637 65.7142 60.2952 65.713 59.8013C65.7142 59.3087 65.4128 58.9925 64.8862 58.9925H64.3584ZM64.3584 59.3424H64.8862C65.1922 59.3424 65.3608 59.5469 65.3608 59.7959C65.3608 60.0516 65.1922 60.2871 64.8862 60.2871H64.3584V59.3424Z" fill="white"/>
<path d="M85.5695 68.9745V66.2183H84.7265C84.1779 66.2183 83.9077 66.575 83.9077 67.0823C83.9077 67.4524 84.0521 67.7337 84.3419 67.8589L83.8176 68.9745H84.2241L84.7045 67.9315C84.7126 67.9315 84.7196 67.9315 84.7276 67.9315H85.2127V68.9745H85.5695ZM85.2127 67.5736H84.76C84.4124 67.5736 84.2669 67.3932 84.2669 67.0823C84.2669 66.7701 84.4124 66.575 84.7646 66.575H85.2127V67.5736Z" fill="white"/>
<path d="M86.5758 68.9745H86.9327V68.0056H87.4177C87.9663 68.0056 88.2377 67.6193 88.2377 67.1106C88.2377 66.6032 87.9686 66.2183 87.4189 66.2183H86.5758V68.9745ZM86.9327 67.653V66.575H87.3808C87.7342 66.575 87.8785 66.7984 87.8785 67.1106C87.8785 67.4228 87.7342 67.653 87.3854 67.653H86.9327Z" fill="white"/>
<path d="M91.1983 67.5964C91.1983 66.7149 90.7456 66.1807 90.1335 66.1807C89.5191 66.1807 89.0676 66.7149 89.0676 67.5964C89.0676 68.4766 89.5191 69.0122 90.1335 69.0122C90.7456 69.0122 91.1983 68.4779 91.1983 67.5964ZM90.8449 67.5964C90.8449 68.268 90.54 68.6327 90.1335 68.6327C89.7259 68.6327 89.4221 68.268 89.4221 67.5964C89.4221 66.9249 89.7259 66.5602 90.1335 66.5602C90.54 66.5602 90.8449 66.9249 90.8449 67.5964Z" fill="white"/>
<path d="M94.0954 67.1146C94.0145 66.5252 93.6184 66.1807 93.1184 66.1807C92.5063 66.1807 92.0548 66.7149 92.0548 67.5964C92.0548 68.4779 92.504 69.0122 93.1184 69.0122C93.6381 69.0122 94.018 68.6327 94.0954 68.0877L93.7351 68.0863C93.6739 68.4389 93.4198 68.6327 93.1207 68.6327C92.7153 68.6327 92.4093 68.2707 92.4093 67.5964C92.4093 66.9276 92.7142 66.5602 93.1218 66.5602C93.4232 66.5602 93.6762 66.758 93.7351 67.1146H94.0954Z" fill="white"/>
<path d="M94.8312 68.9745H94.9328C95.471 68.9745 95.6003 68.5089 95.6315 67.6234L95.6684 66.5709H96.4757V68.9745H96.8279V66.2183H95.3324L95.292 67.513C95.2665 68.3111 95.1834 68.6031 94.9005 68.6112L94.8312 68.6139V68.9745Z" fill="white"/>
<path d="M98.0352 68.9745L98.2523 68.2451H99.1761L99.3921 68.9745H99.7709L98.9198 66.2183H98.5075L97.6564 68.9745H98.0352ZM98.3562 67.8952L98.705 66.719H98.7235L99.0722 67.8952H98.3562Z" fill="white"/>
<path d="M100.6 68.9745H101.507C102.056 68.9745 102.305 68.6556 102.305 68.233C102.305 67.8064 102.048 67.5655 101.814 67.5507V67.5238C102.031 67.4592 102.212 67.2869 102.212 66.9424C102.212 66.5346 101.97 66.2183 101.466 66.2183H100.6V68.9745ZM100.957 68.6179V67.7351H101.485C101.771 67.7351 101.95 67.9504 101.95 68.2128C101.95 68.4443 101.815 68.6179 101.472 68.6179H100.957ZM100.957 67.4107V66.5723H101.444C101.727 66.5723 101.862 66.7459 101.862 66.9747C101.862 67.2411 101.675 67.4107 101.435 67.4107H100.957Z" fill="white"/>
<path d="M103.037 68.9745H103.138C103.677 68.9745 103.806 68.5089 103.837 67.6234L103.874 66.5709H104.681V68.9745H105.034V66.2183H103.538L103.498 67.513C103.472 68.3111 103.389 68.6031 103.106 68.6112L103.037 68.6139V68.9745Z" fill="white"/>
<path d="M106.401 67.33V66.2183H106.043V68.9745H106.929C107.456 68.9745 107.757 68.6327 107.756 68.1388C107.757 67.6462 107.456 67.33 106.929 67.33H106.401ZM106.401 67.6799H106.929C107.235 67.6799 107.404 67.8844 107.404 68.1334C107.404 68.3891 107.235 68.6246 106.929 68.6246H106.401V67.6799Z" fill="white"/>
<path d="M110.984 43.4801V46.2362H111.324V44.2404H111.346L112.043 46.2322H112.325L113.023 44.2418H113.045V46.2362H113.384V43.4801H112.951L112.198 45.6226H112.17L111.417 43.4801H110.984Z" fill="white"/>
<path d="M114.651 46.2362L114.868 45.5068H115.792L116.008 46.2362H116.387L115.535 43.4801H115.123L114.272 46.2362H114.651ZM114.972 45.1569L115.321 43.9807H115.339L115.688 45.1569H114.972Z" fill="white"/>
<path d="M117.216 46.2362H117.573V45.0345H118.752V46.2362H119.11V43.4801H118.752V44.6778H117.573V43.4801H117.216V46.2362Z" fill="white"/>
<path d="M120.001 43.838H120.738V46.2362H121.093V43.838H121.831V43.4801H120.001V43.838Z" fill="white"/>
<path d="M122.891 46.2739H123.053C123.422 46.2739 123.545 46.033 123.648 45.7585L124.466 43.4801H124.092L123.54 45.0735L122.92 43.4801H122.541L123.372 45.5485L123.339 45.6468C123.288 45.7908 123.21 45.9079 123.033 45.9079H122.891V46.2739Z" fill="white"/>
<path d="M125.291 46.2362H125.648V45.2673H126.133C126.682 45.2673 126.953 44.881 126.953 44.3723C126.953 43.865 126.684 43.4801 126.134 43.4801H125.291V46.2362ZM125.648 44.9147V43.8367H126.096C126.45 43.8367 126.594 44.0601 126.594 44.3723C126.594 44.6845 126.45 44.9147 126.101 44.9147H125.648Z" fill="white"/>
<path d="M129.914 44.8582C129.914 43.9767 129.461 43.4424 128.849 43.4424C128.235 43.4424 127.783 43.9767 127.783 44.8582C127.783 45.7383 128.235 46.2739 128.849 46.2739C129.461 46.2739 129.914 45.7396 129.914 44.8582ZM129.56 44.8582C129.56 45.5297 129.256 45.8944 128.849 45.8944C128.441 45.8944 128.138 45.5297 128.138 44.8582C128.138 44.1866 128.441 43.8219 128.849 43.8219C129.256 43.8219 129.56 44.1866 129.56 44.8582Z" fill="white"/>
<path d="M130.847 46.2362H131.753C132.303 46.2362 132.551 45.9173 132.551 45.4947C132.551 45.0681 132.295 44.8272 132.06 44.8124V44.7855C132.277 44.7209 132.459 44.5486 132.459 44.2041C132.459 43.7963 132.216 43.4801 131.713 43.4801H130.847V46.2362ZM131.203 45.8796V44.9968H131.731C132.018 44.9968 132.197 45.2121 132.197 45.4745C132.197 45.706 132.061 45.8796 131.718 45.8796H131.203ZM131.203 44.6724V43.834H131.691C131.974 43.834 132.109 44.0076 132.109 44.2364C132.109 44.5029 131.922 44.6724 131.681 44.6724H131.203Z" fill="white"/>
<path d="M135.517 44.8582C135.517 43.9767 135.064 43.4424 134.452 43.4424C133.837 43.4424 133.386 43.9767 133.386 44.8582C133.386 45.7383 133.837 46.2739 134.452 46.2739C135.064 46.2739 135.517 45.7396 135.517 44.8582ZM135.163 44.8582C135.163 45.5297 134.858 45.8944 134.452 45.8944C134.044 45.8944 133.74 45.5297 133.74 44.8582C133.74 44.1866 134.044 43.8219 134.452 43.8219C134.858 43.8219 135.163 44.1866 135.163 44.8582Z" fill="white"/>
<path d="M129.462 56.8486H129.897L128.921 55.3386L129.903 54.0924H129.46L128.54 55.2565H128.418V54.0924H128.061V56.8486H128.418V55.6131H128.662L129.462 56.8486Z" fill="white"/>
<path d="M132.683 55.4705C132.683 54.589 132.231 54.0547 131.618 54.0547C131.004 54.0547 130.553 54.589 130.553 55.4705C130.553 56.3506 131.004 56.8862 131.618 56.8862C132.231 56.8862 132.683 56.352 132.683 55.4705ZM132.33 55.4705C132.33 56.142 132.025 56.5067 131.618 56.5067C131.211 56.5067 130.907 56.142 130.907 55.4705C130.907 54.7989 131.211 54.4342 131.618 54.4342C132.025 54.4342 132.33 54.7989 132.33 55.4705Z" fill="white"/>
<path d="M133.401 54.4504H134.138V56.8486H134.493V54.4504H135.231V54.0924H133.401V54.4504Z" fill="white"/>
<path d="M136.124 56.8486H137.62V56.4906H136.48V55.6468H137.529V55.2901H136.48V54.4504H137.606V54.0924H136.124V56.8486Z" fill="white"/>
<path d="M138.392 56.8486H138.493C139.032 56.8486 139.161 56.3829 139.192 55.4974L139.229 54.445H140.036V56.8486H140.389V54.0924H138.893L138.853 55.387C138.827 56.1851 138.744 56.4771 138.461 56.4852L138.392 56.4879V56.8486Z" fill="white"/>
<path d="M141.756 55.204V54.0924H141.398V56.8486H142.284C142.811 56.8486 143.112 56.5067 143.111 56.0128C143.112 55.5203 142.811 55.204 142.284 55.204H141.756ZM141.756 55.5539H142.284C142.59 55.5539 142.759 55.7585 142.759 56.0074C142.759 56.2631 142.59 56.4986 142.284 56.4986H141.756V55.5539Z" fill="white"/>
<path d="M144.034 56.8486H144.391V55.6468H145.57V56.8486H145.928V54.0924H145.57V55.2901H144.391V54.0924H144.034V56.8486Z" fill="white"/>
<path d="M146.935 54.0924V56.8486H147.263L148.465 54.8272H148.487V56.8486H148.844V54.0924H148.514L147.311 56.1164H147.289V54.0924H146.935Z" fill="white"/>
<path d="M149.9 54.0924V55.0021C149.899 55.6172 150.219 55.8594 150.736 55.8594C150.964 55.8594 151.16 55.8257 151.33 55.7692V56.8486H151.683V54.0924H151.33V55.4139C151.153 55.4691 150.934 55.5028 150.736 55.5028C150.428 55.5028 150.252 55.3816 150.252 55.0021V54.0924H149.9Z" fill="white"/>
<path d="M153.736 55.2969H152.688V55.6454H153.736V55.2969Z" fill="white"/>
<path d="M155.511 54.0924H155.179C155.166 54.1677 154.986 54.5163 154.641 54.5163V54.8581C154.909 54.8581 155.094 54.7343 155.134 54.6536H155.153V56.8486H155.511V54.0924Z" fill="white"/>
<path d="M172.296 68.8717H170.821V71.6278H171.178V69.2296H172.296V68.8717Z" fill="white"/>
<path d="M173.007 71.6278H173.109C173.647 71.6278 173.776 71.1622 173.807 70.2767L173.844 69.2243H174.651V71.6278H175.004V68.8717H173.508L173.468 70.1663C173.442 70.9644 173.359 71.2564 173.076 71.2645L173.007 71.2672V71.6278Z" fill="white"/>
<path d="M176.211 71.6278L176.428 70.8984H177.352L177.568 71.6278H177.947L177.096 68.8717H176.683L175.832 71.6278H176.211ZM176.532 70.5485L176.881 69.3723H176.899L177.248 70.5485H176.532Z" fill="white"/>
<path d="M179.567 71.6655C180.05 71.6655 180.404 71.3291 180.403 70.8715C180.404 70.523 180.223 70.2726 179.909 70.2161V70.1946C180.156 70.1206 180.317 69.8945 180.315 69.5849C180.317 69.1799 180.031 68.834 179.576 68.834C179.142 68.834 178.793 69.1395 178.782 69.5876H179.127C179.135 69.3346 179.34 69.1812 179.572 69.1812C179.813 69.1812 179.971 69.3521 179.97 69.6065C179.971 69.8729 179.788 70.0479 179.526 70.0479H179.326V70.387H179.526C179.854 70.387 180.043 70.5808 180.043 70.8581C180.043 71.1259 179.843 71.3075 179.565 71.3075C179.308 71.3075 179.109 71.1541 179.095 70.9092H178.732C178.747 71.3587 179.089 71.6655 179.567 71.6655Z" fill="white"/>
<path d="M183.414 70.2498C183.414 69.3683 182.962 68.834 182.35 68.834C181.735 68.834 181.284 69.3683 181.284 70.2498C181.284 71.1299 181.735 71.6655 182.35 71.6655C182.962 71.6655 183.414 71.1313 183.414 70.2498ZM183.061 70.2498C183.061 70.9213 182.756 71.286 182.35 71.286C181.942 71.286 181.638 70.9213 181.638 70.2498C181.638 69.5782 181.942 69.2135 182.35 69.2135C182.756 69.2135 183.061 69.5782 183.061 70.2498Z" fill="white"/>
<path d="M184.347 71.6278H185.254C185.803 71.6278 186.052 71.3089 186.052 70.8863C186.052 70.4597 185.795 70.2188 185.561 70.204V70.1771C185.778 70.1125 185.959 69.9402 185.959 69.5957C185.959 69.1879 185.717 68.8717 185.213 68.8717H184.347V71.6278ZM184.704 71.2712V70.3884H185.232C185.518 70.3884 185.697 70.6037 185.697 70.8661C185.697 71.0976 185.562 71.2712 185.219 71.2712H184.704ZM184.704 70.064V69.2256H185.191C185.474 69.2256 185.609 69.3992 185.609 69.628C185.609 69.8945 185.422 70.064 185.182 70.064H184.704Z" fill="white"/>
<path d="M173.347 44.4365H171.522V47.1927H171.878V44.7918H172.991V47.1927H173.347V44.4365Z" fill="white"/>
<path d="M174.38 47.1927H175.877V46.8347H174.737V45.9909H175.786V45.6343H174.737V44.7945H175.863V44.4365H174.38V47.1927Z" fill="white"/>
<path d="M176.828 47.1927H177.185V46.2237H177.67C178.218 46.2237 178.49 45.8375 178.49 45.3288C178.49 44.8214 178.22 44.4365 177.671 44.4365H176.828V47.1927ZM177.185 45.8711V44.7932H177.633C177.986 44.7932 178.13 45.0166 178.13 45.3288C178.13 45.641 177.986 45.8711 177.637 45.8711H177.185Z" fill="white"/>
<path d="M179.396 44.4365V47.1927H179.735V45.1969H179.757L180.455 47.1887H180.736L181.434 45.1982H181.456V47.1927H181.795V44.4365H181.362L180.609 46.579H180.582L179.829 44.4365H179.396Z" fill="white"/>
<path d="M183.223 45.5481V44.4365H182.865V47.1927H183.75C184.277 47.1927 184.579 46.8509 184.577 46.357C184.579 45.8644 184.277 45.5481 183.75 45.5481H183.223ZM183.223 45.8981H183.75C184.057 45.8981 184.225 46.1026 184.225 46.3516C184.225 46.6073 184.057 46.8428 183.75 46.8428H183.223V45.8981Z" fill="white"/>
<path d="M195.095 58.9972H195.832V61.3954H196.187V58.9972H196.925V58.6392H195.095V58.9972Z" fill="white"/>
<path d="M198.174 58.6392H197.817V61.3954H198.174V60.2246H198.589C198.654 60.9809 199.081 61.4331 199.646 61.4331C200.258 61.4331 200.71 60.8988 200.71 60.0173C200.71 59.1358 200.258 58.6016 199.646 58.6016C199.065 58.6016 198.629 59.0793 198.583 59.876H198.174V58.6392ZM200.357 60.0173C200.357 60.6889 200.052 61.0536 199.646 61.0536C199.238 61.0536 198.934 60.6889 198.934 60.0173C198.934 59.3458 199.238 58.9811 199.646 58.9811C200.052 58.9811 200.357 59.3458 200.357 60.0173Z" fill="white"/>
<path d="M201.583 58.6392V61.3954H201.922V59.3996H201.944L202.642 61.3914H202.923L203.621 59.401H203.643V61.3954H203.982V58.6392H203.549L202.796 60.7817H202.769L202.016 58.6392H201.583Z" fill="white"/>
<path d="M205.049 61.3954H206.546V61.0374H205.406V60.1936H206.455V59.837H205.406V58.9972H206.532V58.6392H205.049V61.3954Z" fill="white"/>
<path d="M207.497 61.3954H207.854V60.1936H209.033V61.3954H209.391V58.6392H209.033V59.837H207.854V58.6392H207.497V61.3954Z" fill="white"/>
<path d="M210.758 59.7509V58.6392H210.4V61.3954H211.286C211.813 61.3954 212.114 61.0536 212.113 60.5597C212.114 60.0671 211.813 59.7509 211.286 59.7509H210.758ZM210.758 60.1008H211.286C211.592 60.1008 211.761 60.3053 211.761 60.5543C211.761 60.81 211.592 61.0455 211.286 61.0455H210.758V60.1008Z" fill="white"/>
<path d="M227.295 68.3542C227.295 67.4728 226.842 66.9385 226.23 66.9385C225.616 66.9385 225.164 67.4728 225.164 68.3542C225.164 69.2344 225.616 69.77 226.23 69.77C226.842 69.77 227.295 69.2357 227.295 68.3542ZM226.941 68.3542C226.941 69.0258 226.636 69.3905 226.23 69.3905C225.822 69.3905 225.519 69.0258 225.519 68.3542C225.519 67.6827 225.822 67.318 226.23 67.318C226.636 67.318 226.941 67.6827 226.941 68.3542Z" fill="white"/>
<path d="M228.227 66.9762V69.7323H228.567V67.7365H228.589L229.286 69.7283H229.568L230.266 67.7379H230.288V69.7323H230.627V66.9762H230.194L229.441 69.1187H229.413L228.661 66.9762H228.227Z" fill="white"/>
<path d="M233.659 67.8725C233.578 67.283 233.182 66.9385 232.682 66.9385C232.069 66.9385 231.618 67.4728 231.618 68.3542C231.618 69.2357 232.067 69.77 232.682 69.77C233.201 69.77 233.581 69.3905 233.659 68.8455L233.298 68.8441C233.237 69.1967 232.983 69.3905 232.684 69.3905C232.279 69.3905 231.972 69.0285 231.972 68.3542C231.972 67.6854 232.277 67.318 232.685 67.318C232.986 67.318 233.239 67.5158 233.298 67.8725H233.659Z" fill="white"/>
<path d="M235.974 69.7323H236.41L235.434 68.2224L236.415 66.9762H235.973L235.053 68.1403H234.93V66.9762H234.573V69.7323H234.93V68.4969H235.175L235.974 69.7323Z" fill="white"/>
<path d="M262.392 39.7939H262.828L261.852 38.2839L262.833 37.0377H262.391L261.471 38.2018H261.348V37.0377H260.991V39.7939H261.348V38.5584H261.593L262.392 39.7939Z" fill="white"/>
<path d="M263.677 39.7939H264.034V38.8249H264.519C265.067 38.8249 265.339 38.4387 265.339 37.9299C265.339 37.4226 265.07 37.0377 264.52 37.0377H263.677V39.7939ZM264.034 38.4723V37.3943H264.482C264.835 37.3943 264.979 37.6177 264.979 37.9299C264.979 38.2422 264.835 38.4723 264.486 38.4723H264.034Z" fill="white"/>
<path d="M266.194 39.7939L266.411 39.0644H267.335L267.551 39.7939H267.929L267.078 37.0377H266.666L265.815 39.7939H266.194ZM266.515 38.7145L266.863 37.5383H266.882L267.231 38.7145H266.515Z" fill="white"/>
<path d="M270.612 37.934C270.531 37.3445 270.135 37 269.635 37C269.023 37 268.571 37.5343 268.571 38.4158C268.571 39.2973 269.021 39.8315 269.635 39.8315C270.155 39.8315 270.535 39.452 270.612 38.907L270.252 38.9056C270.19 39.2582 269.936 39.452 269.637 39.452C269.232 39.452 268.926 39.09 268.926 38.4158C268.926 37.7469 269.231 37.3795 269.638 37.3795C269.94 37.3795 270.193 37.5773 270.252 37.934H270.612Z" fill="white"/>
<path d="M271.527 39.7939H271.884V38.5921H273.063V39.7939H273.421V37.0377H273.063V38.2354H271.884V37.0377H271.527V39.7939Z" fill="white"/>
<path d="M276.483 38.4158C276.483 37.5343 276.03 37 275.418 37C274.804 37 274.352 37.5343 274.352 38.4158C274.352 39.2959 274.804 39.8315 275.418 39.8315C276.03 39.8315 276.483 39.2973 276.483 38.4158ZM276.129 38.4158C276.129 39.0873 275.824 39.452 275.418 39.452C275.01 39.452 274.707 39.0873 274.707 38.4158C274.707 37.7442 275.01 37.3795 275.418 37.3795C275.824 37.3795 276.129 37.7442 276.129 38.4158Z" fill="white"/>
<path d="M278.993 39.7939V37.0377H278.15C277.601 37.0377 277.331 37.3943 277.331 37.9017C277.331 38.2718 277.475 38.553 277.765 38.6782L277.241 39.7939H277.647L278.128 38.7509C278.136 38.7509 278.143 38.7509 278.151 38.7509H278.636V39.7939H278.993ZM278.636 38.3929H278.183C277.836 38.3929 277.69 38.2126 277.69 37.9017C277.69 37.5895 277.836 37.3943 278.188 37.3943H278.636V38.3929Z" fill="white"/>
<path d="M279.999 39.7939H280.356V38.8249H280.841C281.39 38.8249 281.661 38.4387 281.661 37.9299C281.661 37.4226 281.392 37.0377 280.842 37.0377H279.999V39.7939ZM280.356 38.4723V37.3943H280.804C281.158 37.3943 281.302 37.6177 281.302 37.9299C281.302 38.2422 281.158 38.4723 280.809 38.4723H280.356Z" fill="white"/>
<path d="M284.532 37.934C284.451 37.3445 284.055 37 283.555 37C282.942 37 282.491 37.5343 282.491 38.4158C282.491 39.2973 282.94 39.8315 283.555 39.8315C284.074 39.8315 284.454 39.452 284.532 38.907L284.171 38.9056C284.11 39.2582 283.856 39.452 283.557 39.452C283.152 39.452 282.845 39.09 282.845 38.4158C282.845 37.7469 283.15 37.3795 283.558 37.3795C283.859 37.3795 284.112 37.5773 284.171 37.934H284.532Z" fill="white"/>
<path d="M286.847 39.7939H287.283L286.307 38.2839L287.288 37.0377H286.846L285.926 38.2018H285.803V37.0377H285.446V39.7939H285.803V38.5584H286.048L286.847 39.7939Z" fill="white"/>
<path d="M285.324 61.4331H285.485C285.855 61.4331 285.977 61.1922 286.081 60.9177L286.899 58.6392H286.525L285.973 60.2327L285.352 58.6392H284.974L285.805 60.7077L285.772 60.806C285.721 60.95 285.642 61.0671 285.466 61.0671H285.324V61.4331Z" fill="white"/>
<path d="M287.545 61.3954H287.647C288.185 61.3954 288.314 60.9298 288.345 60.0443L288.382 58.9918H289.19V61.3954H289.542V58.6392H288.046L288.006 59.9339C287.98 60.732 287.897 61.024 287.614 61.0321L287.545 61.0348V61.3954Z" fill="white"/>
<path d="M290.749 61.3954L290.966 60.666H291.89L292.106 61.3954H292.485L291.634 58.6392H291.221L290.37 61.3954H290.749ZM291.07 60.3161L291.419 59.1399H291.437L291.786 60.3161H291.07Z" fill="white"/>
<path d="M293.314 61.3954H293.671V60.1936H294.85V61.3954H295.208V58.6392H294.85V59.837H293.671V58.6392H293.314V61.3954Z" fill="white"/>
<path d="M297.233 59.8437H296.184V60.1923H297.233V59.8437Z" fill="white"/>
<path d="M298.17 61.4331H298.331C298.701 61.4331 298.823 61.1922 298.927 60.9177L299.745 58.6392H299.371L298.819 60.2327L298.199 58.6392H297.82L298.651 60.7077L298.618 60.806C298.567 60.95 298.488 61.0671 298.312 61.0671H298.17V61.4331Z" fill="white"/>
<path d="M300.391 62.0616H300.733V61.3954H302.321V62.0576H302.663V61.0428H302.395V58.6392H300.936L300.881 59.8034C300.845 60.5705 300.705 60.8867 300.547 61.0428H300.391V62.0616ZM300.967 61.0428C301.103 60.7912 301.194 60.3861 301.223 59.8034L301.26 58.9972H302.053V61.0428H300.967Z" fill="white"/>
<path d="M303.466 60.5207C303.511 61.0428 303.805 61.4331 304.375 61.4331C304.946 61.4331 305.311 60.9365 305.311 60.164V59.8774C305.311 59.1049 304.941 58.6016 304.356 58.6016C303.799 58.6016 303.511 58.9972 303.465 59.5302H303.829C303.866 59.1722 304.01 58.9595 304.356 58.9595C304.736 58.9595 304.948 59.3175 304.949 59.8747H304.077V60.2273H304.948C304.933 60.7131 304.751 61.0805 304.375 61.0805C304.021 61.0805 303.869 60.884 303.829 60.5207H303.466Z" fill="white"/>
<path d="M35.1937 13.0142C35.1937 13.7452 34.6851 14.3379 34.0578 14.3379C33.4304 14.3379 32.9219 13.7452 32.9219 13.0142C32.9219 12.2831 33.4304 11.6904 34.0578 11.6904C34.6851 11.6904 35.1937 12.2831 35.1937 13.0142Z" fill="#272722"/>
<path fill-rule="evenodd" clip-rule="evenodd" d="M34.0578 13.9589C34.5055 13.9589 34.8685 13.5359 34.8685 13.0142C34.8685 12.4924 34.5055 12.0694 34.0578 12.0694C33.61 12.0694 33.2471 12.4924 33.2471 13.0142C33.2471 13.5359 33.61 13.9589 34.0578 13.9589ZM34.0578 14.3379C34.6851 14.3379 35.1937 13.7452 35.1937 13.0142C35.1937 12.2831 34.6851 11.6904 34.0578 11.6904C33.4304 11.6904 32.9219 12.2831 32.9219 13.0142C32.9219 13.7452 33.4304 14.3379 34.0578 14.3379Z" fill="white"/>
<path d="M7.30404 43.771C7.30404 44.5021 6.79548 45.0947 6.16813 45.0947C5.54079 45.0947 5.03223 44.5021 5.03223 43.771C5.03223 43.0399 5.54079 42.4473 6.16813 42.4473C6.79548 42.4473 7.30404 43.0399 7.30404 43.771Z" fill="#131313"/>
<path fill-rule="evenodd" clip-rule="evenodd" d="M6.16813 44.7157C6.61587 44.7157 6.97884 44.2928 6.97884 43.771C6.97884 43.2492 6.61587 42.8262 6.16813 42.8262C5.72039 42.8262 5.35743 43.2492 5.35743 43.771C5.35743 44.2928 5.72039 44.7157 6.16813 44.7157ZM6.16813 45.0947C6.79548 45.0947 7.30404 44.5021 7.30404 43.771C7.30404 43.0399 6.79548 42.4473 6.16813 42.4473C5.54079 42.4473 5.03223 43.0399 5.03223 43.771C5.03223 44.5021 5.54079 45.0947 6.16813 45.0947Z" fill="white"/>
<path d="M70.4058 59.3442C70.4058 60.0753 69.8973 60.668 69.2699 60.668C68.6426 60.668 68.134 60.0753 68.134 59.3442C68.134 58.6132 68.6426 58.0205 69.2699 58.0205C69.8973 58.0205 70.4058 58.6132 70.4058 59.3442Z" fill="#4D5648"/>
<path fill-rule="evenodd" clip-rule="evenodd" d="M69.2699 60.289C69.7177 60.289 70.0806 59.866 70.0806 59.3442C70.0806 58.8225 69.7177 58.3995 69.2699 58.3995C68.8222 58.3995 68.4592 58.8225 68.4592 59.3442C68.4592 59.866 68.8222 60.289 69.2699 60.289ZM69.2699 60.668C69.8973 60.668 70.4058 60.0753 70.4058 59.3442C70.4058 58.6132 69.8973 58.0205 69.2699 58.0205C68.6426 58.0205 68.134 58.6132 68.134 59.3442C68.134 60.0753 68.6426 60.668 69.2699 60.668Z" fill="white"/>
<path d="M80.9137 67.6186C80.9137 68.3497 80.4051 68.9424 79.7778 68.9424C79.1504 68.9424 78.6418 68.3497 78.6418 67.6186C78.6418 66.8876 79.1504 66.2949 79.7778 66.2949C80.4051 66.2949 80.9137 66.8876 80.9137 67.6186Z" fill="#47443E"/>
<path fill-rule="evenodd" clip-rule="evenodd" d="M79.7778 68.5634C80.2255 68.5634 80.5885 68.1404 80.5885 67.6186C80.5885 67.0969 80.2255 66.6739 79.7778 66.6739C79.33 66.6739 78.967 67.0969 78.967 67.6186C78.967 68.1404 79.33 68.5634 79.7778 68.5634ZM79.7778 68.9424C80.4051 68.9424 80.9137 68.3497 80.9137 67.6186C80.9137 66.8876 80.4051 66.2949 79.7778 66.2949C79.1504 66.2949 78.6418 66.8876 78.6418 67.6186C78.6418 68.3497 79.1504 68.9424 79.7778 68.9424Z" fill="white"/>
<path d="M109.595 48.4243C109.595 49.1554 109.087 49.748 108.459 49.748C107.832 49.748 107.323 49.1554 107.323 48.4243C107.323 47.6932 107.832 47.1006 108.459 47.1006C109.087 47.1006 109.595 47.6932 109.595 48.4243Z" fill="#93A47C"/>
<path fill-rule="evenodd" clip-rule="evenodd" d="M108.459 49.3691C108.907 49.3691 109.27 48.9461 109.27 48.4243C109.27 47.9025 108.907 47.4796 108.459 47.4796C108.012 47.4796 107.649 47.9025 107.649 48.4243C107.649 48.9461 108.012 49.3691 108.459 49.3691ZM108.459 49.748C109.087 49.748 109.595 49.1554 109.595 48.4243C109.595 47.6932 109.087 47.1006 108.459 47.1006C107.832 47.1006 107.323 47.6932 107.323 48.4243C107.323 49.1554 107.832 49.748 108.459 49.748Z" fill="white"/>
<path d="M134.87 61.3306C134.87 62.0616 134.361 62.6543 133.734 62.6543C133.106 62.6543 132.598 62.0616 132.598 61.3306C132.598 60.5995 133.106 60.0068 133.734 60.0068C134.361 60.0068 134.87 60.5995 134.87 61.3306Z" fill="#738F8C"/>
<path fill-rule="evenodd" clip-rule="evenodd" d="M133.734 62.2753C134.181 62.2753 134.544 61.8523 134.544 61.3306C134.544 60.8088 134.181 60.3858 133.734 60.3858C133.286 60.3858 132.923 60.8088 132.923 61.3306C132.923 61.8523 133.286 62.2753 133.734 62.2753ZM133.734 62.6543C134.361 62.6543 134.87 62.0616 134.87 61.3306C134.87 60.5995 134.361 60.0068 133.734 60.0068C133.106 60.0068 132.598 60.5995 132.598 61.3306C132.598 62.0616 133.106 62.6543 133.734 62.6543Z" fill="white"/>
<path d="M168.094 70.2661C168.094 70.9972 167.586 71.5898 166.958 71.5898C166.331 71.5898 165.822 70.9972 165.822 70.2661C165.822 69.535 166.331 68.9424 166.958 68.9424C167.586 68.9424 168.094 69.535 168.094 70.2661Z" fill="#789186"/>
<path fill-rule="evenodd" clip-rule="evenodd" d="M166.958 71.2109C167.406 71.2109 167.769 70.7879 167.769 70.2661C167.769 69.7443 167.406 69.3214 166.958 69.3214C166.51 69.3214 166.147 69.7443 166.147 70.2661C166.147 70.7879 166.51 71.2109 166.958 71.2109ZM166.958 71.5898C167.586 71.5898 168.094 70.9972 168.094 70.2661C168.094 69.535 167.586 68.9424 166.958 68.9424C166.331 68.9424 165.822 69.535 165.822 70.2661C165.822 70.9972 166.331 71.5898 166.958 71.5898Z" fill="white"/>
<path d="M178.885 50.7417C178.885 51.4728 178.377 52.0654 177.749 52.0654C177.122 52.0654 176.613 51.4728 176.613 50.7417C176.613 50.0106 177.122 49.418 177.749 49.418C178.377 49.418 178.885 50.0106 178.885 50.7417Z" fill="#8CBABB"/>
<path fill-rule="evenodd" clip-rule="evenodd" d="M177.749 51.6864C178.197 51.6864 178.56 51.2635 178.56 50.7417C178.56 50.2199 178.197 49.7969 177.749 49.7969C177.301 49.7969 176.938 50.2199 176.938 50.7417C176.938 51.2635 177.301 51.6864 177.749 51.6864ZM177.749 52.0654C178.377 52.0654 178.885 51.4728 178.885 50.7417C178.885 50.0106 178.377 49.418 177.749 49.418C177.122 49.418 176.613 50.0106 176.613 50.7417C176.613 51.4728 177.122 52.0654 177.749 52.0654Z" fill="white"/>
<path d="M197.343 65.6333C197.343 66.3644 196.835 66.957 196.207 66.957C195.58 66.957 195.071 66.3644 195.071 65.6333C195.071 64.9022 195.58 64.3096 196.207 64.3096C196.835 64.3096 197.343 64.9022 197.343 65.6333Z" fill="#414847"/>
<path fill-rule="evenodd" clip-rule="evenodd" d="M196.207 66.578C196.655 66.578 197.018 66.1551 197.018 65.6333C197.018 65.1115 196.655 64.6885 196.207 64.6885C195.759 64.6885 195.396 65.1115 195.396 65.6333C195.396 66.1551 195.759 66.578 196.207 66.578ZM196.207 66.957C196.835 66.957 197.343 66.3644 197.343 65.6333C197.343 64.9022 196.835 64.3096 196.207 64.3096C195.58 64.3096 195.071 64.9022 195.071 65.6333C195.071 66.3644 195.58 66.957 196.207 66.957Z" fill="white"/>
<path d="M231.706 60.6685C231.706 61.3995 231.197 61.9922 230.57 61.9922C229.942 61.9922 229.434 61.3995 229.434 60.6685C229.434 59.9374 229.942 59.3447 230.57 59.3447C231.197 59.3447 231.706 59.9374 231.706 60.6685Z" fill="#577379"/>
<path fill-rule="evenodd" clip-rule="evenodd" d="M230.57 61.6132C231.017 61.6132 231.38 61.1902 231.38 60.6685C231.38 60.1467 231.017 59.7237 230.57 59.7237C230.122 59.7237 229.759 60.1467 229.759 60.6685C229.759 61.1902 230.122 61.6132 230.57 61.6132ZM230.57 61.9922C231.197 61.9922 231.706 61.3995 231.706 60.6685C231.706 59.9374 231.197 59.3447 230.57 59.3447C229.942 59.3447 229.434 59.9374 229.434 60.6685C229.434 61.3995 229.942 61.9922 230.57 61.9922Z" fill="white"/>
<path d="M275.585 42.7983C275.585 43.5294 275.077 44.1221 274.449 44.1221C273.822 44.1221 273.313 43.5294 273.313 42.7983C273.313 42.0673 273.822 41.4746 274.449 41.4746C275.077 41.4746 275.585 42.0673 275.585 42.7983Z" fill="#3E403A"/>
<path fill-rule="evenodd" clip-rule="evenodd" d="M274.449 43.7431C274.897 43.7431 275.26 43.3201 275.26 42.7983C275.26 42.2766 274.897 41.8536 274.449 41.8536C274.002 41.8536 273.639 42.2766 273.639 42.7983C273.639 43.3201 274.002 43.7431 274.449 43.7431ZM274.449 44.1221C275.077 44.1221 275.585 43.5294 275.585 42.7983C275.585 42.0673 275.077 41.4746 274.449 41.4746C273.822 41.4746 273.313 42.0673 273.313 42.7983C273.313 43.5294 273.822 44.1221 274.449 44.1221Z" fill="white"/>
<path d="M296.085 53.2446C296.085 53.9757 295.577 54.5684 294.95 54.5684C294.322 54.5684 293.814 53.9757 293.814 53.2446C293.814 52.5136 294.322 51.9209 294.95 51.9209C295.577 51.9209 296.085 52.5136 296.085 53.2446Z" fill="#181A19"/>
<path fill-rule="evenodd" clip-rule="evenodd" d="M294.95 54.1894C295.397 54.1894 295.76 53.7664 295.76 53.2446C295.76 52.7229 295.397 52.2999 294.95 52.2999C294.502 52.2999 294.139 52.7229 294.139 53.2446C294.139 53.7664 294.502 54.1894 294.95 54.1894ZM294.95 54.5684C295.577 54.5684 296.085 53.9757 296.085 53.2446C296.085 52.5136 295.577 51.9209 294.95 51.9209C294.322 51.9209 293.814 52.5136 293.814 53.2446C293.814 53.9757 294.322 54.5684 294.95 54.5684Z" fill="white"/>
</svg>
