<svg width="885" height="249" viewBox="0 0 885 249" fill="none" xmlns="http://www.w3.org/2000/svg">
<path fill-rule="evenodd" clip-rule="evenodd" d="M853.716 153.28C853.716 153.583 853.504 153.829 853.244 153.829C845.921 153.829 842.017 155.715 835.777 158.73C835.289 158.966 834.787 159.208 834.268 159.457C833.398 159.875 832.409 159.617 831.419 159.026C830.42 158.429 829.329 157.437 828.192 156.197C825.915 153.712 823.366 150.129 820.878 146.379C819.21 143.864 817.558 141.257 816.027 138.842C815.275 137.656 814.553 136.515 813.872 135.454C812.836 133.841 811.897 132.413 811.092 131.278C810.28 130.131 809.631 129.321 809.174 128.913C796.945 118.016 779.857 126.89 776.93 142.238C776.209 146.018 775.431 148.859 774.584 150.941C773.739 153.021 772.807 154.389 771.757 155.166C769.614 156.754 767.233 155.717 764.811 154.201C764.089 153.749 763.355 153.249 762.603 152.738C760.751 151.478 758.791 150.146 756.639 149.266C753.659 148.048 750.386 147.744 746.731 149.874C745.616 150.524 744.044 152.075 742.283 154.097C740.536 156.103 738.644 158.52 736.895 160.846C735.149 163.168 733.549 165.393 732.38 167.019L732.376 167.025C731.792 167.837 731.314 168.502 730.98 168.952C730.814 169.176 730.678 169.355 730.581 169.474C730.535 169.529 730.484 169.589 730.436 169.635L730.435 169.636C730.419 169.651 730.36 169.707 730.279 169.743C730.247 169.757 730.105 169.818 729.937 169.744C729.714 169.645 729.646 169.413 729.633 169.293C729.05 163.851 726.43 157.983 722.74 153.696C719.048 149.407 714.358 146.778 709.649 147.622C702.03 148.988 697.629 154.347 693.961 160.794C692.788 162.856 691.703 165.004 690.611 167.167C689.986 168.406 689.358 169.649 688.709 170.884C686.941 174.252 685.042 177.512 682.698 180.243C682.408 180.581 682.085 180.798 681.73 180.876C681.377 180.953 681.037 180.884 680.726 180.737C680.125 180.454 679.561 179.848 679.061 179.234C678.805 178.919 678.552 178.584 678.309 178.262L678.306 178.259C678.061 177.934 677.827 177.624 677.598 177.344C677.369 177.062 677.155 176.823 676.955 176.641C676.752 176.456 676.588 176.352 676.458 176.308C674.689 175.719 672.314 175.585 669.905 175.737C667.503 175.889 665.11 176.324 663.323 176.845C660.457 177.68 656.819 179.877 652.757 182.676C650.552 184.195 648.258 185.866 645.913 187.574C643.925 189.022 641.899 190.497 639.859 191.93C635.442 195.033 631.013 197.897 626.972 199.68C622.947 201.455 619.208 202.204 616.221 200.922C613.938 199.941 611.922 198.894 610.026 197.879C609.693 197.701 609.364 197.525 609.038 197.349C607.503 196.524 606.035 195.735 604.534 195.027C600.912 193.319 597.12 192.097 591.908 192.097C589.511 192.097 588.159 192.694 587.261 193.433C586.807 193.807 586.453 194.231 586.129 194.672C585.988 194.865 585.855 195.057 585.72 195.252L585.657 195.344C585.502 195.567 585.343 195.795 585.176 196.011C584.84 196.446 584.456 196.855 583.951 197.15C583.444 197.446 582.844 197.609 582.095 197.601C580.62 197.587 578.526 196.911 575.297 195.239C570.474 192.741 566.145 188.741 561.868 184.592C561.368 184.107 560.869 183.62 560.37 183.133C556.581 179.437 552.79 175.738 548.644 172.887C547.288 171.954 544.89 169.918 541.861 167.346C540.805 166.449 539.673 165.488 538.481 164.485C533.85 160.588 528.284 156.037 522.717 152.151C517.141 148.259 511.603 145.063 507.021 143.844C504.731 143.235 502.72 143.13 501.078 143.642C499.455 144.147 498.17 145.26 497.307 147.159C494.706 152.883 494.891 159.185 495.079 165.621C495.094 166.124 495.109 166.627 495.122 167.131C495.306 174.032 495.239 181.022 491.181 187.102C485.53 195.568 481.551 206.042 481.551 217.06C481.551 219.86 480.851 228.16 479.798 235.401C479.272 239.022 478.653 242.414 477.98 244.737C477.647 245.885 477.284 246.837 476.879 247.419C476.676 247.709 476.42 247.97 476.1 248.063C475.748 248.166 475.42 248.037 475.152 247.777C472.584 245.282 468.305 244.048 463.129 243.437C458.701 242.915 453.703 242.856 448.707 242.796C447.885 242.787 447.064 242.777 446.246 242.765C440.467 242.682 434.812 242.496 430.27 241.461C425.755 240.432 422.161 238.525 420.749 234.822C419.872 232.522 419.506 230.299 419.252 228.278C419.194 227.814 419.141 227.364 419.091 226.929C418.918 225.44 418.764 224.114 418.448 222.928C418.049 221.435 417.406 220.228 416.159 219.331C414.89 218.419 412.951 217.795 409.905 217.608C405.589 217.344 402.666 216.45 400.682 214.932C398.674 213.396 397.686 211.262 397.161 208.686C396.709 206.464 396.594 203.867 396.467 201.006C396.449 200.593 396.43 200.174 396.41 199.75C396.252 196.368 396.011 192.598 395.181 188.485C395.047 187.822 394.91 186.841 394.755 185.727C394.71 185.401 394.663 185.065 394.614 184.722C394.396 183.184 394.134 181.479 393.789 179.932C393.44 178.371 393.019 177.034 392.506 176.19C392.252 175.772 392 175.516 391.756 175.393C391.528 175.278 391.27 175.259 390.946 175.406C383.1 178.962 375.032 181.45 366.939 183.946L366.419 184.106C360.025 186.079 355.635 187.146 352.538 187.304C349.423 187.463 347.512 186.707 346.197 184.914C345.557 184.04 345.081 182.95 344.666 181.684C344.25 180.418 343.884 178.94 343.476 177.28L343.425 177.072C342.615 173.777 341.615 169.703 339.72 164.846C338.081 160.645 335.809 157.766 333.216 155.187C332.055 154.033 330.834 152.943 329.573 151.817C329.422 151.682 329.269 151.546 329.117 151.409C327.697 150.14 326.236 148.815 324.785 147.313C323.731 146.221 322.07 145.078 320.116 143.863C319.258 143.33 318.33 142.776 317.381 142.208C316.216 141.512 315.02 140.797 313.885 140.081C311.801 138.767 309.805 137.378 308.286 135.906C306.78 134.447 305.657 132.825 305.475 131.021C305.109 127.395 303.877 125.724 302.3 125.12C300.654 124.49 298.471 124.951 296.095 126.056C291.369 128.254 286.286 132.802 284.193 134.752C281.642 137.131 279.118 139.45 276.627 141.739C258.383 158.501 241.939 173.61 229.882 198.198L229.792 198.382C228.687 200.639 224.849 208.476 221.129 213.523C220.171 214.824 219.206 215.959 218.285 216.769C217.378 217.566 216.445 218.109 215.562 218.087C214.617 218.064 213.867 217.403 213.352 216.18C212.849 214.985 212.537 213.191 212.431 210.709C212.111 203.259 209.76 195.295 206.721 187.561C204.347 181.519 201.569 175.654 199.037 170.307C198.327 168.81 197.637 167.353 196.981 165.944C184.611 139.403 170.899 112.057 149.388 94.5572C147.828 93.2875 146.432 92.1812 145.167 91.1778C141.796 88.5047 139.346 86.5619 137.141 84.2069C134.088 80.9455 131.501 76.8962 127.513 69.052C127.218 68.4728 126.922 67.8893 126.625 67.3029C122.555 59.2739 118.206 50.6945 112.843 44.7778C109.974 41.6121 106.836 39.2342 103.321 38.1106C99.812 36.9892 95.8933 37.106 91.4405 38.993C89.8893 39.6503 88.2302 40.9837 86.5416 42.75C84.8578 44.5113 83.1703 46.6759 81.5608 48.9593C78.9346 52.6852 76.5387 56.6939 74.7183 59.7398C74.3057 60.4301 73.9227 61.0709 73.5732 61.6478C60.5732 83.1097 43.916 99.8449 27.0626 116.777C24.3488 119.504 21.6297 122.236 18.92 124.993C18.7239 125.193 18.426 125.169 18.2547 124.941C18.0834 124.712 18.1036 124.365 18.2997 124.165C21.0176 121.399 23.7416 118.662 26.4579 115.933C43.3155 98.9952 59.875 82.3567 72.8027 61.014C73.1472 60.4455 73.5264 59.8109 73.9362 59.1251C75.7563 56.0797 78.1793 52.0253 80.832 48.2617C82.4583 45.9546 84.1794 43.7442 85.9117 41.9321C87.6392 40.125 89.4036 38.6867 91.1182 37.9601C95.7372 36.0027 99.856 35.8636 103.57 37.0508C107.278 38.2358 110.548 40.7312 113.492 43.9797C118.955 50.0081 123.37 58.7181 127.42 66.711C127.723 67.3091 128.024 67.9031 128.324 68.4918C132.298 76.3075 134.829 80.2457 137.779 83.3967C139.93 85.6942 142.301 87.5749 145.642 90.2245C146.916 91.2347 148.331 92.3566 149.928 93.656C171.644 111.323 185.448 138.894 197.809 165.419C198.46 166.815 199.145 168.262 199.852 169.754C202.387 175.106 205.188 181.02 207.578 187.103C210.635 194.881 213.044 202.996 213.373 210.654C213.477 213.085 213.78 214.701 214.199 215.696C214.607 216.665 215.087 216.976 215.582 216.989C216.14 217.003 216.858 216.646 217.717 215.891C218.561 215.149 219.476 214.079 220.414 212.807C224.071 207.844 227.872 200.085 228.978 197.827L229.063 197.653C241.217 172.867 257.812 157.622 276.048 140.871C278.538 138.583 281.06 136.267 283.604 133.894C285.694 131.946 290.875 127.3 295.746 125.035C298.169 123.908 300.618 123.32 302.594 124.076C304.639 124.859 306.019 127.009 306.411 130.893C306.549 132.261 307.43 133.648 308.888 135.061C310.333 136.461 312.26 137.807 314.334 139.115C315.484 139.84 316.643 140.533 317.784 141.214C318.727 141.777 319.658 142.333 320.56 142.894C322.51 144.105 324.264 145.302 325.412 146.491C326.835 147.966 328.273 149.269 329.691 150.537C329.843 150.674 329.996 150.81 330.148 150.946C331.406 152.069 332.647 153.177 333.828 154.351C336.485 156.993 338.864 159.995 340.579 164.391C342.502 169.323 343.519 173.463 344.329 176.76L344.382 176.977C344.793 178.648 345.148 180.078 345.547 181.291C345.944 182.502 346.373 183.461 346.915 184.2C347.964 185.632 349.529 186.358 352.496 186.206C355.481 186.054 359.78 185.017 366.177 183.044L366.677 182.89C374.784 180.39 382.808 177.915 390.604 174.382C391.14 174.139 391.657 174.145 392.131 174.384C392.59 174.616 392.965 175.043 393.276 175.555C393.893 176.57 394.348 178.072 394.701 179.656C395.058 181.254 395.326 183 395.545 184.542C395.596 184.903 395.645 185.251 395.691 185.583C395.844 186.687 395.973 187.612 396.099 188.233C396.949 192.444 397.193 196.293 397.352 199.69C397.372 200.119 397.391 200.54 397.409 200.953C397.537 203.831 397.648 206.316 398.079 208.432C398.565 210.818 399.447 212.672 401.2 214.014C402.977 215.374 405.703 216.25 409.955 216.511C413.069 216.702 415.191 217.344 416.654 218.396C418.139 219.464 418.9 220.921 419.348 222.602C419.691 223.884 419.858 225.335 420.033 226.841C420.082 227.264 420.131 227.69 420.185 228.119C420.435 230.106 420.786 232.212 421.611 234.376C422.82 237.544 425.977 239.362 430.451 240.382C434.896 241.396 440.467 241.583 446.258 241.666C447.072 241.678 447.89 241.688 448.709 241.697C453.702 241.756 458.749 241.816 463.224 242.344C468.413 242.956 472.95 244.208 475.756 246.933C475.844 247.018 475.871 246.997 475.872 246.997C475.905 246.988 476 246.935 476.146 246.726C476.438 246.308 476.758 245.518 477.086 244.386C477.734 242.148 478.344 238.827 478.868 235.218C479.917 227.999 480.608 219.77 480.608 217.06C480.608 205.735 484.695 195.03 490.437 186.427C494.265 180.691 494.364 174.077 494.18 167.165C494.166 166.649 494.15 166.13 494.135 165.61C493.946 159.232 493.75 152.64 496.473 146.645C497.463 144.466 498.967 143.162 500.834 142.58C502.682 142.005 504.863 142.143 507.231 142.773C511.964 144.032 517.608 147.303 523.202 151.208C528.805 155.119 534.397 159.693 539.033 163.594C540.251 164.619 541.4 165.594 542.465 166.499C545.473 169.053 547.809 171.037 549.123 171.941C553.341 174.841 557.195 178.602 560.976 182.291C561.476 182.778 561.974 183.264 562.471 183.747C566.752 187.9 570.991 191.806 575.68 194.235C578.89 195.897 580.834 196.49 582.103 196.502C582.725 196.509 583.173 196.375 583.529 196.167C583.888 195.958 584.181 195.656 584.476 195.275C584.624 195.084 584.768 194.877 584.923 194.654C585.075 194.434 585.238 194.196 585.412 193.958C585.764 193.479 586.175 192.981 586.717 192.535C587.812 191.634 589.37 190.998 591.908 190.998C597.267 190.998 601.181 192.26 604.888 194.008C606.412 194.727 607.904 195.529 609.44 196.355C609.764 196.53 610.09 196.705 610.419 196.881C612.31 197.892 614.299 198.925 616.547 199.89C619.2 201.029 622.663 200.405 626.638 198.652C630.595 196.906 634.963 194.086 639.372 190.989C641.374 189.582 643.397 188.109 645.391 186.658C647.757 184.935 650.081 183.243 652.277 181.73C656.335 178.933 660.08 176.657 663.095 175.778C664.943 175.24 667.396 174.795 669.853 174.64C672.303 174.484 674.8 174.613 676.717 175.252C677.012 175.35 677.287 175.548 677.536 175.775C677.788 176.005 678.039 176.288 678.282 176.587C678.523 176.882 678.768 177.206 679.008 177.525L679.017 177.536C679.262 177.861 679.504 178.181 679.746 178.478C680.241 179.087 680.685 179.532 681.079 179.718C681.266 179.806 681.42 179.825 681.556 179.796C681.689 179.766 681.848 179.679 682.031 179.466C684.295 176.828 686.148 173.657 687.905 170.31C688.535 169.111 689.155 167.883 689.777 166.651C690.88 164.467 691.991 162.269 693.175 160.187C696.905 153.631 701.503 147.971 709.506 146.536C714.616 145.62 719.59 148.484 723.406 152.918C726.973 157.062 729.592 162.646 730.421 168.024C730.736 167.594 731.154 167.013 731.653 166.319L731.659 166.31C732.828 164.685 734.433 162.453 736.186 160.122C737.941 157.787 739.85 155.347 741.621 153.314C743.378 151.297 745.045 149.628 746.309 148.891C750.243 146.599 753.79 146.937 756.952 148.229C759.194 149.146 761.282 150.565 763.161 151.843C763.892 152.34 764.593 152.816 765.258 153.233C767.709 154.767 769.612 155.453 771.251 154.239C772.092 153.616 772.926 152.453 773.732 150.471C774.537 148.492 775.296 145.74 776.01 141.999C779.076 125.918 796.935 116.624 809.746 128.04C810.299 128.533 811.008 129.433 811.82 130.578C812.639 131.734 813.589 133.18 814.627 134.796C815.315 135.867 816.041 137.014 816.795 138.204C818.322 140.613 819.962 143.201 821.624 145.707C824.108 149.451 826.618 152.973 828.837 155.394C829.948 156.607 830.964 157.519 831.85 158.048C832.746 158.583 833.419 158.676 833.909 158.441C834.431 158.19 834.937 157.946 835.43 157.708C841.672 154.692 845.73 152.73 853.244 152.73C853.504 152.73 853.716 152.976 853.716 153.28Z" fill="white"/>
<path d="M70.5619 10.0966H73.1909C74.7851 10.0966 75.5051 9.17164 75.5051 7.94616C75.5051 6.70897 74.7616 6.01037 74.0818 5.96744V5.88939C74.7114 5.70205 75.2372 5.20249 75.2372 4.20338C75.2372 3.02083 74.5339 2.10367 73.0737 2.10367H70.5619V10.0966ZM71.5968 9.06236V6.50212H73.1273C73.9579 6.50212 74.477 7.12657 74.477 7.88762C74.477 8.5589 74.0851 9.06236 73.0904 9.06236H71.5968ZM71.5968 5.56155V3.13011H73.0101C73.8306 3.13011 74.2224 3.63357 74.2224 4.29704C74.2224 5.0698 73.6799 5.56155 72.9833 5.56155H71.5968Z" fill="white"/>
<path d="M78.1472 10.0966H82.4875V9.05846H79.182V6.6114H82.2229V5.57716H79.182V3.14182H82.4473V2.10367H78.1472V10.0966Z" fill="white"/>
<path d="M84.7252 10.0966H85.0199C86.5805 10.0966 86.9556 8.74623 87.0461 6.17819L87.1532 3.12621H89.4942V10.0966H90.5157V2.10367H86.1787L86.0614 5.85816C85.9878 8.17252 85.7466 9.01943 84.9261 9.04284L84.7252 9.05065V10.0966Z" fill="white"/>
<path d="M93.4374 2.10367V10.0966H94.3885L97.8749 4.2346H97.9385V10.0966H98.9733V2.10367H98.0155L94.5258 7.97348H94.4622V2.10367H93.4374Z" fill="white"/>
<path d="M105.96 10.0966H107.223L104.393 5.71766L107.239 2.10367H105.957L103.287 5.47959H102.932V2.10367H101.898V10.0966H102.932V6.51383H103.642L105.96 10.0966Z" fill="white"/>
<path d="M109.685 2.10367V10.0966H110.637L114.123 4.2346H114.187V10.0966H115.221V2.10367H114.264L110.774 7.97348H110.71V2.10367H109.685Z" fill="white"/>
<path d="M118.146 2.10367V10.0966H119.097L122.583 4.2346H122.647V10.0966H123.682V2.10367H122.724L119.234 7.97348H119.17V2.10367H118.146ZM121.572 0.0742188C121.572 0.468401 121.384 0.81575 120.915 0.81575C120.44 0.81575 120.262 0.464498 120.262 0.0742188H119.442C119.442 0.952348 120.014 1.55728 120.915 1.55728C121.823 1.55728 122.396 0.952348 122.396 0.0742188H121.572Z" fill="white"/>
<path d="M66.272 23.2849H67.3068V19.7997H70.7262V23.2849H71.7644V15.292H70.7262V18.7655H67.3068V15.292H66.272V23.2849Z" fill="white"/>
<path d="M80.644 19.2885C80.644 16.7321 79.3312 15.1827 77.5562 15.1827C75.7745 15.1827 74.4651 16.7321 74.4651 19.2885C74.4651 21.8409 75.7745 23.3942 77.5562 23.3942C79.3312 23.3942 80.644 21.8448 80.644 19.2885ZM79.6192 19.2885C79.6192 21.236 78.7351 22.2936 77.5562 22.2936C76.374 22.2936 75.4932 21.236 75.4932 19.2885C75.4932 17.341 76.374 16.2833 77.5562 16.2833C78.7351 16.2833 79.6192 17.341 79.6192 19.2885Z" fill="white"/>
<path d="M83.3489 23.2849H85.9779C87.572 23.2849 88.2921 22.36 88.2921 21.1345C88.2921 19.8973 87.5486 19.1987 86.8687 19.1558V19.0777C87.4984 18.8904 88.0242 18.3908 88.0242 17.3917C88.0242 16.2092 87.3209 15.292 85.8607 15.292H83.3489V23.2849ZM84.3837 22.2507V19.6905H85.9143C86.7448 19.6905 87.2639 20.3149 87.2639 21.0759C87.2639 21.7472 86.8721 22.2507 85.8774 22.2507H84.3837ZM84.3837 18.7499V16.3184H85.797C86.6176 16.3184 87.0094 16.8219 87.0094 17.4854C87.0094 18.2581 86.4668 18.7499 85.7702 18.7499H84.3837Z" fill="white"/>
<path d="M95.2109 15.292H90.9341V23.2849H91.969V16.3301H95.2109V15.292Z" fill="white"/>
<path d="M103.464 19.2885C103.464 16.7321 102.151 15.1827 100.376 15.1827C98.5947 15.1827 97.2852 16.7321 97.2852 19.2885C97.2852 21.8409 98.5947 23.3942 100.376 23.3942C102.151 23.3942 103.464 21.8448 103.464 19.2885ZM102.439 19.2885C102.439 21.236 101.555 22.2936 100.376 22.2936C99.1942 22.2936 98.3134 21.236 98.3134 19.2885C98.3134 17.341 99.1942 16.2833 100.376 16.2833C101.555 16.2833 102.439 17.341 102.439 19.2885Z" fill="white"/>
<path d="M106.169 23.2849H107.204V20.4749H108.611C110.201 20.4749 110.988 19.3548 110.988 17.8796C110.988 16.4082 110.208 15.292 108.614 15.292H106.169V23.2849ZM107.204 19.4524V16.3262H108.503C109.528 16.3262 109.947 16.9741 109.947 17.8796C109.947 18.785 109.528 19.4524 108.517 19.4524H107.204Z" fill="white"/>
<path d="M119.574 19.2885C119.574 16.7321 118.261 15.1827 116.486 15.1827C114.705 15.1827 113.395 16.7321 113.395 19.2885C113.395 21.8409 114.705 23.3942 116.486 23.3942C118.261 23.3942 119.574 21.8448 119.574 19.2885ZM118.549 19.2885C118.549 21.236 117.665 22.2936 116.486 22.2936C115.304 22.2936 114.423 21.236 114.423 19.2885C114.423 17.341 115.304 16.2833 116.486 16.2833C117.665 16.2833 118.549 17.341 118.549 19.2885Z" fill="white"/>
<path d="M121.76 25.2168H122.751V23.2849H127.356V25.2051H128.347V22.2624H127.57V15.292H123.341L123.18 18.6679C123.076 20.8925 122.671 21.8097 122.212 22.2624H121.76V25.2168ZM123.431 22.2624C123.823 21.5326 124.087 20.3578 124.171 18.6679L124.278 16.3301H126.579V22.2624H123.431Z" fill="white"/>
<path d="M6.23728 137.282H0.945801V145.275H1.9773V138.312H5.20578V145.275H6.23728V137.282Z" fill="white"/>
<path d="M14.9311 139.881C14.6966 138.172 13.5479 137.173 12.0978 137.173C10.3228 137.173 9.0133 138.722 9.0133 141.279C9.0133 143.835 10.3161 145.384 12.0978 145.384C13.6048 145.384 14.7067 144.284 14.9311 142.703L13.8862 142.699C13.7087 143.722 12.9719 144.284 12.1045 144.284C10.929 144.284 10.0415 143.234 10.0415 141.279C10.0415 139.339 10.9256 138.273 12.1078 138.273C12.9819 138.273 13.7154 138.847 13.8862 139.881H14.9311Z" fill="white"/>
<path d="M21.6464 145.275H22.909L20.079 140.896L22.9257 137.282H21.643L18.9738 140.658H18.6188V137.282H17.584V145.275H18.6188V141.692H19.3288L21.6464 145.275Z" fill="white"/>
<path d="M30.989 141.279C30.989 138.722 29.6762 137.173 27.9012 137.173C26.1195 137.173 24.8101 138.722 24.8101 141.279C24.8101 143.831 26.1195 145.384 27.9012 145.384C29.6762 145.384 30.989 143.835 30.989 141.279ZM29.9642 141.279C29.9642 143.226 29.0801 144.284 27.9012 144.284C26.719 144.284 25.8382 143.226 25.8382 141.279C25.8382 139.331 26.719 138.273 27.9012 138.273C29.0801 138.273 29.9642 139.331 29.9642 141.279Z" fill="white"/>
<path d="M33.6939 145.275H36.3229C37.917 145.275 38.6371 144.35 38.6371 143.125C38.6371 141.887 37.8936 141.189 37.2137 141.146V141.068C37.8433 140.881 38.3691 140.381 38.3691 139.382C38.3691 138.199 37.6658 137.282 36.2057 137.282H33.6939V145.275ZM34.7287 144.241V141.681H36.2592C37.0898 141.681 37.6089 142.305 37.6089 143.066C37.6089 143.737 37.2171 144.241 36.2224 144.241H34.7287ZM34.7287 140.74V138.309H36.142C36.9625 138.309 37.3544 138.812 37.3544 139.476C37.3544 140.248 36.8118 140.74 36.1152 140.74H34.7287Z" fill="white"/>
<path d="M154.869 167.992H157.006V174.947H158.038V167.992H160.178V166.954H154.869V167.992Z" fill="white"/>
<path d="M162.765 174.947H165.394C166.988 174.947 167.708 174.022 167.708 172.797C167.708 171.56 166.965 170.861 166.285 170.818V170.74C166.915 170.553 167.441 170.053 167.441 169.054C167.441 167.872 166.737 166.954 165.277 166.954H162.765V174.947ZM163.8 173.913V171.353H165.331C166.161 171.353 166.68 171.977 166.68 172.738C166.68 173.41 166.288 173.913 165.294 173.913H163.8ZM163.8 170.412V167.981H165.213C166.034 167.981 166.426 168.484 166.426 169.148C166.426 169.92 165.883 170.412 165.187 170.412H163.8Z" fill="white"/>
<path d="M170.35 174.947H174.691V173.909H171.385V171.462H174.426V170.428H171.385V167.992H174.651V166.954H170.35V174.947Z" fill="white"/>
<path d="M177.448 174.947H178.482V172.137H179.889C181.48 172.137 182.267 171.017 182.267 169.542C182.267 168.071 181.487 166.954 179.892 166.954H177.448V174.947ZM178.482 171.115V167.989H179.782C180.807 167.989 181.225 168.636 181.225 169.542C181.225 170.447 180.807 171.115 179.795 171.115H178.482Z" fill="white"/>
<path d="M185.94 170.178V166.954H184.901V174.947H187.47C188.997 174.947 189.871 173.956 189.868 172.524C189.871 171.095 188.997 170.178 187.47 170.178H185.94ZM185.94 171.193H187.47C188.358 171.193 188.847 171.786 188.847 172.508C188.847 173.25 188.358 173.933 187.47 173.933H185.94V171.193Z" fill="white"/>
<path d="M247.452 199.126V191.133H245.007C243.416 191.133 242.632 192.167 242.632 193.639C242.632 194.712 243.051 195.528 243.892 195.891L242.371 199.126H243.55L244.943 196.101C244.967 196.101 244.987 196.101 245.01 196.101H246.417V199.126H247.452ZM246.417 195.063H245.104C244.096 195.063 243.674 194.54 243.674 193.639C243.674 192.733 244.096 192.167 245.117 192.167H246.417V195.063Z" fill="white"/>
<path d="M250.37 199.126H251.405V196.316H252.811C254.402 196.316 255.189 195.196 255.189 193.721C255.189 192.249 254.409 191.133 252.815 191.133H250.37V199.126ZM251.405 195.294V192.167H252.704C253.729 192.167 254.148 192.815 254.148 193.721C254.148 194.626 253.729 195.294 252.718 195.294H251.405Z" fill="white"/>
<path d="M263.775 195.13C263.775 192.573 262.462 191.024 260.687 191.024C258.905 191.024 257.596 192.573 257.596 195.13C257.596 197.682 258.905 199.235 260.687 199.235C262.462 199.235 263.775 197.686 263.775 195.13ZM262.75 195.13C262.75 197.077 261.866 198.135 260.687 198.135C259.505 198.135 258.624 197.077 258.624 195.13C258.624 193.182 259.505 192.125 260.687 192.125C261.866 192.125 262.75 193.182 262.75 195.13Z" fill="white"/>
<path d="M272.177 193.732C271.942 192.023 270.793 191.024 269.343 191.024C267.568 191.024 266.259 192.573 266.259 195.13C266.259 197.686 267.562 199.235 269.343 199.235C270.85 199.235 271.952 198.135 272.177 196.554L271.132 196.55C270.954 197.573 270.217 198.135 269.35 198.135C268.174 198.135 267.287 197.085 267.287 195.13C267.287 193.19 268.171 192.125 269.353 192.125C270.227 192.125 270.961 192.698 271.132 193.732H272.177Z" fill="white"/>
<path d="M274.31 199.126H274.605C276.166 199.126 276.541 197.776 276.631 195.208L276.738 192.156H279.079V199.126H280.101V191.133H275.764L275.647 194.888C275.573 197.202 275.332 198.049 274.511 198.072L274.31 198.08V199.126Z" fill="white"/>
<path d="M283.602 199.126L284.232 197.011H286.911L287.537 199.126H288.636L286.167 191.133H284.972L282.503 199.126H283.602ZM284.533 195.996L285.544 192.585H285.598L286.609 195.996H284.533Z" fill="white"/>
<path d="M291.041 199.126H293.67C295.264 199.126 295.984 198.201 295.984 196.976C295.984 195.739 295.24 195.04 294.561 194.997V194.919C295.19 194.732 295.716 194.232 295.716 193.233C295.716 192.05 295.013 191.133 293.552 191.133H291.041V199.126ZM292.076 198.092V195.532H293.606C294.437 195.532 294.956 196.156 294.956 196.917C294.956 197.588 294.564 198.092 293.569 198.092H292.076ZM292.076 194.591V192.16H293.489C294.309 192.16 294.701 192.663 294.701 193.327C294.701 194.099 294.159 194.591 293.462 194.591H292.076Z" fill="white"/>
<path d="M298.107 199.126H298.402C299.962 199.126 300.337 197.776 300.428 195.208L300.535 192.156H302.876V199.126H303.897V191.133H299.56L299.443 194.888C299.369 197.202 299.128 198.049 298.308 198.072L298.107 198.08V199.126Z" fill="white"/>
<path d="M307.864 194.357V191.133H306.826V199.126H309.394C310.922 199.126 311.796 198.135 311.792 196.702C311.796 195.274 310.922 194.357 309.394 194.357H307.864ZM307.864 195.372H309.394C310.282 195.372 310.771 195.965 310.771 196.687C310.771 197.428 310.282 198.111 309.394 198.111H307.864V195.372Z" fill="white"/>
<path d="M321.155 125.192V133.185H322.139V127.397H322.203L324.226 133.173H325.043L327.066 127.401H327.129V133.185H328.114V125.192H326.858L324.675 131.405H324.594L322.411 125.192H321.155Z" fill="white"/>
<path d="M331.788 133.185L332.417 131.07H335.096L335.723 133.185H336.821L334.353 125.192H333.157L330.689 133.185H331.788ZM332.719 130.055L333.73 126.644H333.784L334.795 130.055H332.719Z" fill="white"/>
<path d="M339.226 133.185H340.261V129.7H343.681V133.185H344.719V125.192H343.681V128.666H340.261V125.192H339.226V133.185Z" fill="white"/>
<path d="M347.302 126.23H349.439V133.185H350.47V126.23H352.61V125.192H347.302V126.23Z" fill="white"/>
<path d="M355.684 133.294H356.153C357.224 133.294 357.579 132.596 357.881 131.799L360.252 125.192H359.167L357.566 129.813L355.767 125.192H354.669L357.08 131.191L356.983 131.476C356.836 131.893 356.608 132.233 356.096 132.233H355.684V133.294Z" fill="white"/>
<path d="M362.645 133.185H363.68V130.375H365.087C366.677 130.375 367.464 129.255 367.464 127.78C367.464 126.308 366.684 125.192 365.09 125.192H362.645V133.185ZM363.68 129.352V126.226H364.979C366.004 126.226 366.423 126.874 366.423 127.78C366.423 128.685 366.004 129.352 364.993 129.352H363.68Z" fill="white"/>
<path d="M376.05 129.189C376.05 126.632 374.737 125.083 372.962 125.083C371.181 125.083 369.871 126.632 369.871 129.189C369.871 131.741 371.181 133.294 372.962 133.294C374.737 133.294 376.05 131.745 376.05 129.189ZM375.025 129.189C375.025 131.136 374.141 132.194 372.962 132.194C371.78 132.194 370.899 131.136 370.899 129.189C370.899 127.241 371.78 126.183 372.962 126.183C374.141 126.183 375.025 127.241 375.025 129.189Z" fill="white"/>
<path d="M378.755 133.185H381.384C382.978 133.185 383.698 132.26 383.698 131.035C383.698 129.797 382.955 129.099 382.275 129.056V128.978C382.905 128.79 383.43 128.291 383.43 127.292C383.43 126.109 382.727 125.192 381.267 125.192H378.755V133.185ZM379.79 132.151V129.59H381.32C382.151 129.59 382.67 130.215 382.67 130.976C382.67 131.647 382.278 132.151 381.284 132.151H379.79ZM379.79 128.65V126.218H381.203C382.024 126.218 382.416 126.722 382.416 127.385C382.416 128.158 381.873 128.65 381.176 128.65H379.79Z" fill="white"/>
<path d="M392.298 129.189C392.298 126.632 390.985 125.083 389.21 125.083C387.429 125.083 386.119 126.632 386.119 129.189C386.119 131.741 387.429 133.294 389.21 133.294C390.985 133.294 392.298 131.745 392.298 129.189ZM391.273 129.189C391.273 131.136 390.389 132.194 389.21 132.194C388.028 132.194 387.147 131.136 387.147 129.189C387.147 127.241 388.028 126.183 389.21 126.183C390.389 126.183 391.273 127.241 391.273 129.189Z" fill="white"/>
<path d="M374.739 163.961H376.001L373.171 159.582L376.018 155.968H374.735L372.066 159.344H371.711V155.968H370.676V163.961H371.711V160.378H372.421L374.739 163.961Z" fill="white"/>
<path d="M384.081 159.965C384.081 157.408 382.768 155.859 380.993 155.859C379.212 155.859 377.902 157.408 377.902 159.965C377.902 162.517 379.212 164.07 380.993 164.07C382.768 164.07 384.081 162.521 384.081 159.965ZM383.056 159.965C383.056 161.912 382.172 162.97 380.993 162.97C379.811 162.97 378.93 161.912 378.93 159.965C378.93 158.017 379.811 156.959 380.993 156.959C382.172 156.959 383.056 158.017 383.056 159.965Z" fill="white"/>
<path d="M386.162 157.006H388.299V163.961H389.331V157.006H391.471V155.968H386.162V157.006Z" fill="white"/>
<path d="M394.058 163.961H398.399V162.923H395.093V160.476H398.134V159.442H395.093V157.006H398.358V155.968H394.058V163.961Z" fill="white"/>
<path d="M400.636 163.961H400.931C402.492 163.961 402.867 162.611 402.957 160.043L403.064 156.991H405.405V163.961H406.427V155.968H402.09L401.973 159.723C401.899 162.037 401.658 162.884 400.837 162.907L400.636 162.915V163.961Z" fill="white"/>
<path d="M410.393 159.192V155.968H409.355V163.961H411.924C413.451 163.961 414.325 162.97 414.322 161.537C414.325 160.109 413.451 159.192 411.924 159.192H410.393ZM410.393 160.207H411.924C412.811 160.207 413.3 160.8 413.3 161.522C413.3 162.263 412.811 162.946 411.924 162.946H410.393V160.207Z" fill="white"/>
<path d="M416.998 163.961H418.033V160.476H421.452V163.961H422.491V155.968H421.452V159.442H418.033V155.968H416.998V163.961Z" fill="white"/>
<path d="M425.412 155.968V163.961H426.363L429.85 158.099H429.913V163.961H430.948V155.968H429.99L426.501 161.838H426.437V155.968H425.412Z" fill="white"/>
<path d="M434.01 155.968V158.606C434.006 160.39 434.934 161.093 436.434 161.093C437.094 161.093 437.664 160.995 438.156 160.831V163.961H439.181V155.968H438.156V159.801C437.644 159.961 437.007 160.058 436.434 160.058C435.54 160.058 435.031 159.707 435.031 158.606V155.968H434.01Z" fill="white"/>
<path d="M445.136 159.461H442.095V160.472H445.136V159.461Z" fill="white"/>
<path d="M450.283 155.968H449.318C449.282 156.187 448.759 157.198 447.758 157.198V158.189C448.535 158.189 449.074 157.83 449.188 157.596H449.245V163.961H450.283V155.968Z" fill="white"/>
<path d="M498.959 198.828H494.682V206.82H495.717V199.866H498.959V198.828Z" fill="white"/>
<path d="M501.021 206.82H501.315C502.876 206.82 503.251 205.47 503.342 202.902L503.449 199.85H505.79V206.82H506.811V198.828H502.474L502.357 202.582C502.283 204.896 502.042 205.743 501.222 205.767L501.021 205.775V206.82Z" fill="white"/>
<path d="M510.312 206.82L510.942 204.705H513.621L514.247 206.82H515.346L512.878 198.828H511.682L509.214 206.82H510.312ZM511.243 203.69L512.255 200.279H512.308L513.32 203.69H511.243Z" fill="white"/>
<path d="M520.045 206.93C521.445 206.93 522.473 205.954 522.47 204.627C522.473 203.616 521.947 202.89 521.036 202.726V202.664C521.753 202.449 522.219 201.794 522.215 200.896C522.219 199.721 521.391 198.718 520.072 198.718C518.813 198.718 517.801 199.604 517.768 200.904H518.769C518.793 200.17 519.385 199.725 520.058 199.725C520.758 199.725 521.217 200.221 521.214 200.958C521.217 201.731 520.685 202.239 519.925 202.239H519.345V203.222H519.925C520.876 203.222 521.425 203.784 521.425 204.588C521.425 205.365 520.845 205.892 520.038 205.892C519.295 205.892 518.716 205.447 518.675 204.736H517.624C517.667 206.04 518.659 206.93 520.045 206.93Z" fill="white"/>
<path d="M531.202 202.824C531.202 200.268 529.889 198.718 528.114 198.718C526.333 198.718 525.023 200.268 525.023 202.824C525.023 205.376 526.333 206.93 528.114 206.93C529.889 206.93 531.202 205.38 531.202 202.824ZM530.177 202.824C530.177 204.771 529.293 205.829 528.114 205.829C526.932 205.829 526.051 204.771 526.051 202.824C526.051 200.877 526.932 199.819 528.114 199.819C529.293 199.819 530.177 200.877 530.177 202.824Z" fill="white"/>
<path d="M533.907 206.82H536.536C538.13 206.82 538.85 205.896 538.85 204.67C538.85 203.433 538.107 202.734 537.427 202.691V202.613C538.056 202.426 538.582 201.926 538.582 200.927C538.582 199.745 537.879 198.828 536.419 198.828H533.907V206.82ZM534.942 205.786V203.226H536.472C537.303 203.226 537.822 203.85 537.822 204.611C537.822 205.283 537.43 205.786 536.435 205.786H534.942ZM534.942 202.285V199.854H536.355C537.176 199.854 537.567 200.357 537.567 201.021C537.567 201.794 537.025 202.285 536.328 202.285H534.942Z" fill="white"/>
<path d="M502.007 127.966H496.715V135.959H497.747V128.996H500.975V135.959H502.007V127.966Z" fill="white"/>
<path d="M505.004 135.959H509.344V134.921H506.038V132.474H509.079V131.44H506.038V129.004H509.304V127.966H505.004V135.959Z" fill="white"/>
<path d="M512.101 135.959H513.136V133.149H514.542C516.133 133.149 516.92 132.029 516.92 130.554C516.92 129.082 516.14 127.966 514.546 127.966H512.101V135.959ZM513.136 132.126V129H514.435C515.46 129 515.878 129.648 515.878 130.554C515.878 131.459 515.46 132.126 514.448 132.126H513.136Z" fill="white"/>
<path d="M519.548 127.966V135.959H520.532V130.171H520.596L522.619 135.947H523.436L525.459 130.175H525.523V135.959H526.507V127.966H525.251L523.068 134.179H522.987L520.804 127.966H519.548Z" fill="white"/>
<path d="M530.646 131.19V127.966H529.608V135.959H532.177C533.704 135.959 534.578 134.968 534.575 133.535C534.578 132.107 533.704 131.19 532.177 131.19H530.646ZM530.646 132.205H532.177C533.064 132.205 533.553 132.798 533.553 133.52C533.553 134.261 533.064 134.944 532.177 134.944H530.646V132.205Z" fill="white"/>
<path d="M565.075 170.192H567.212V177.147H568.243V170.192H570.383V169.154H565.075V170.192Z" fill="white"/>
<path d="M574.006 169.154H572.971V177.147H574.006V173.751H575.208C575.396 175.945 576.635 177.256 578.272 177.256C580.047 177.256 581.36 175.707 581.36 173.15C581.36 170.594 580.047 169.045 578.272 169.045C576.588 169.045 575.325 170.43 575.191 172.741H574.006V169.154ZM580.335 173.15C580.335 175.098 579.451 176.156 578.272 176.156C577.09 176.156 576.209 175.098 576.209 173.15C576.209 171.203 577.09 170.145 578.272 170.145C579.451 170.145 580.335 171.203 580.335 173.15Z" fill="white"/>
<path d="M583.89 169.154V177.147H584.875V171.359H584.938L586.961 177.135H587.778L589.801 171.363H589.865V177.147H590.849V169.154H589.593L587.41 175.367H587.329L585.146 169.154H583.89Z" fill="white"/>
<path d="M593.944 177.147H598.284V176.109H594.978V173.662H598.019V172.627H594.978V170.192H598.244V169.154H593.944V177.147Z" fill="white"/>
<path d="M601.041 177.147H602.075V173.662H605.495V177.147H606.533V169.154H605.495V172.627H602.075V169.154H601.041V177.147Z" fill="white"/>
<path d="M610.5 172.378V169.154H609.461V177.147H612.03C613.557 177.147 614.431 176.156 614.428 174.723C614.431 173.295 613.557 172.378 612.03 172.378H610.5ZM610.5 173.392H612.03C612.918 173.392 613.407 173.986 613.407 174.708C613.407 175.449 612.918 176.132 612.03 176.132H610.5V173.392Z" fill="white"/>
<path d="M658.455 197.327C658.455 194.771 657.142 193.221 655.367 193.221C653.585 193.221 652.276 194.771 652.276 197.327C652.276 199.88 653.585 201.433 655.367 201.433C657.142 201.433 658.455 199.884 658.455 197.327ZM657.43 197.327C657.43 199.275 656.546 200.332 655.367 200.332C654.185 200.332 653.304 199.275 653.304 197.327C653.304 195.38 654.185 194.322 655.367 194.322C656.546 194.322 657.43 195.38 657.43 197.327Z" fill="white"/>
<path d="M661.16 193.331V201.324H662.144V195.536H662.208L664.231 201.312H665.048L667.071 195.54H667.134V201.324H668.119V193.331H666.863L664.68 199.544H664.599L662.416 193.331H661.16Z" fill="white"/>
<path d="M676.91 195.93C676.675 194.221 675.527 193.221 674.077 193.221C672.302 193.221 670.992 194.771 670.992 197.327C670.992 199.884 672.295 201.433 674.077 201.433C675.584 201.433 676.686 200.332 676.91 198.752L675.865 198.748C675.688 199.77 674.951 200.332 674.083 200.332C672.908 200.332 672.02 199.282 672.02 197.327C672.02 195.387 672.904 194.322 674.087 194.322C674.961 194.322 675.694 194.896 675.865 195.93H676.91Z" fill="white"/>
<path d="M683.625 201.324H684.888L682.058 196.945L684.905 193.331H683.622L680.953 196.707H680.598V193.331H679.563V201.324H680.598V197.741H681.308L683.625 201.324Z" fill="white"/>
<path d="M760.237 114.502H761.5L758.67 110.123L761.517 106.509H760.234L757.565 109.885H757.21V106.509H756.175V114.502H757.21V110.92H757.92L760.237 114.502Z" fill="white"/>
<path d="M763.963 114.502H764.998V111.692H766.404C767.995 111.692 768.782 110.572 768.782 109.097C768.782 107.626 768.002 106.509 766.408 106.509H763.963V114.502ZM764.998 110.67V107.544H766.297C767.322 107.544 767.741 108.192 767.741 109.097C767.741 110.002 767.322 110.67 766.311 110.67H764.998Z" fill="white"/>
<path d="M771.262 114.502L771.891 112.387H774.571L775.197 114.502H776.295L773.827 106.509H772.632L770.163 114.502H771.262ZM772.193 111.372L773.204 107.961H773.258L774.269 111.372H772.193Z" fill="white"/>
<path d="M784.075 109.109C783.84 107.399 782.692 106.4 781.242 106.4C779.467 106.4 778.157 107.95 778.157 110.506C778.157 113.062 779.46 114.612 781.242 114.612C782.749 114.612 783.851 113.511 784.075 111.93L783.03 111.927C782.852 112.949 782.116 113.511 781.248 113.511C780.073 113.511 779.185 112.461 779.185 110.506C779.185 108.566 780.069 107.501 781.252 107.501C782.126 107.501 782.859 108.074 783.03 109.109H784.075Z" fill="white"/>
<path d="M786.728 114.502H787.763V111.017H791.182V114.502H792.22V106.509H791.182V109.983H787.763V106.509H786.728V114.502Z" fill="white"/>
<path d="M801.1 110.506C801.1 107.95 799.787 106.4 798.012 106.4C796.23 106.4 794.921 107.95 794.921 110.506C794.921 113.058 796.23 114.612 798.012 114.612C799.787 114.612 801.1 113.062 801.1 110.506ZM800.075 110.506C800.075 112.453 799.191 113.511 798.012 113.511C796.83 113.511 795.949 112.453 795.949 110.506C795.949 108.558 796.83 107.501 798.012 107.501C799.191 107.501 800.075 108.558 800.075 110.506Z" fill="white"/>
<path d="M808.38 114.502V106.509H805.935C804.344 106.509 803.56 107.544 803.56 109.015C803.56 110.088 803.979 110.904 804.82 111.267L803.299 114.502H804.478L805.871 111.478C805.895 111.478 805.915 111.478 805.938 111.478H807.345V114.502H808.38ZM807.345 110.44H806.032C805.024 110.44 804.602 109.917 804.602 109.015C804.602 108.11 805.024 107.544 806.045 107.544H807.345V110.44Z" fill="white"/>
<path d="M811.298 114.502H812.333V111.692H813.739C815.33 111.692 816.117 110.572 816.117 109.097C816.117 107.626 815.337 106.509 813.743 106.509H811.298V114.502ZM812.333 110.67V107.544H813.632C814.657 107.544 815.076 108.192 815.076 109.097C815.076 110.002 814.657 110.67 813.646 110.67H812.333Z" fill="white"/>
<path d="M824.442 109.109C824.207 107.399 823.059 106.4 821.608 106.4C819.833 106.4 818.524 107.95 818.524 110.506C818.524 113.062 819.827 114.612 821.608 114.612C823.115 114.612 824.217 113.511 824.442 111.93L823.397 111.927C823.219 112.949 822.483 113.511 821.615 113.511C820.44 113.511 819.552 112.461 819.552 110.506C819.552 108.566 820.436 107.501 821.618 107.501C822.493 107.501 823.226 108.074 823.397 109.109H824.442Z" fill="white"/>
<path d="M831.157 114.502H832.42L829.59 110.123L832.436 106.509H831.154L828.484 109.885H828.129V106.509H827.095V114.502H828.129V110.92H828.839L831.157 114.502Z" fill="white"/>
<path d="M826.738 177.256H827.207C828.279 177.256 828.634 176.558 828.935 175.761L831.306 169.154H830.221L828.621 173.775L826.822 169.154H825.724L828.135 175.153L828.038 175.437C827.89 175.855 827.663 176.195 827.15 176.195H826.738V177.256Z" fill="white"/>
<path d="M833.181 177.147H833.475C835.036 177.147 835.411 175.797 835.502 173.228L835.609 170.176H837.95V177.147H838.971V169.154H834.634L834.517 172.908C834.443 175.223 834.202 176.07 833.382 176.093L833.181 176.101V177.147Z" fill="white"/>
<path d="M842.472 177.147L843.102 175.032H845.781L846.407 177.147H847.506L845.038 169.154H843.842L841.374 177.147H842.472ZM843.403 174.017L844.415 170.606H844.468L845.48 174.017H843.403Z" fill="white"/>
<path d="M849.911 177.147H850.946V173.662H854.365V177.147H855.403V169.154H854.365V172.627H850.946V169.154H849.911V177.147Z" fill="white"/>
<path d="M861.276 172.647H858.235V173.658H861.276V172.647Z" fill="white"/>
<path d="M863.992 177.256H864.461C865.533 177.256 865.888 176.558 866.189 175.761L868.56 169.154H867.475L865.874 173.775L864.076 169.154H862.978L865.389 175.153L865.292 175.437C865.144 175.855 864.917 176.195 864.404 176.195H863.992V177.256Z" fill="white"/>
<path d="M870.435 179.079H871.426V177.147H876.031V179.067H877.022V176.124H876.245V169.154H872.015L871.855 172.53C871.751 174.754 871.346 175.672 870.887 176.124H870.435V179.079ZM872.106 176.124C872.498 175.395 872.762 174.22 872.846 172.53L872.953 170.192H875.254V176.124H872.106Z" fill="white"/>
<path d="M879.353 174.61C879.483 176.124 880.334 177.256 881.988 177.256C883.643 177.256 884.701 175.816 884.701 173.576V172.745C884.701 170.504 883.63 169.045 881.932 169.045C880.317 169.045 879.483 170.192 879.349 171.738H880.404C880.512 170.699 880.93 170.083 881.932 170.083C883.033 170.083 883.65 171.121 883.653 172.737H881.124V173.759H883.65C883.606 175.168 883.077 176.234 881.988 176.234C880.96 176.234 880.522 175.664 880.404 174.61H879.353Z" fill="white"/>
<path d="M101.362 36.8408C101.362 38.9609 99.8871 40.6796 98.0678 40.6796C96.2485 40.6796 94.7737 38.9609 94.7737 36.8408C94.7737 34.7206 96.2485 33.002 98.0678 33.002C99.8871 33.002 101.362 34.7206 101.362 36.8408Z" fill="#272722"/>
<path fill-rule="evenodd" clip-rule="evenodd" d="M98.0678 39.5805C99.3663 39.5805 100.419 38.3539 100.419 36.8408C100.419 35.3276 99.3663 34.101 98.0678 34.101C96.7694 34.101 95.7168 35.3276 95.7168 36.8408C95.7168 38.3539 96.7694 39.5805 98.0678 39.5805ZM98.0678 40.6796C99.8871 40.6796 101.362 38.9609 101.362 36.8408C101.362 34.7206 99.8871 33.002 98.0678 33.002C96.2485 33.002 94.7737 34.7206 94.7737 36.8408C94.7737 38.9609 96.2485 40.6796 98.0678 40.6796Z" fill="white"/>
<path d="M20.4818 126.036C20.4818 128.156 19.007 129.874 17.1877 129.874C15.3684 129.874 13.8936 128.156 13.8936 126.036C13.8936 123.915 15.3684 122.197 17.1877 122.197C19.007 122.197 20.4818 123.915 20.4818 126.036Z" fill="#131313"/>
<path fill-rule="evenodd" clip-rule="evenodd" d="M17.1877 128.775C18.4861 128.775 19.5387 127.549 19.5387 126.036C19.5387 124.522 18.4861 123.296 17.1877 123.296C15.8892 123.296 14.8366 124.522 14.8366 126.036C14.8366 127.549 15.8892 128.775 17.1877 128.775ZM17.1877 129.874C19.007 129.874 20.4818 128.156 20.4818 126.036C20.4818 123.915 19.007 122.197 17.1877 122.197C15.3684 122.197 13.8936 123.915 13.8936 126.036C13.8936 128.156 15.3684 129.874 17.1877 129.874Z" fill="white"/>
<path d="M203.477 171.198C203.477 173.319 202.002 175.037 200.183 175.037C198.364 175.037 196.889 173.319 196.889 171.198C196.889 169.078 198.364 167.36 200.183 167.36C202.002 167.36 203.477 169.078 203.477 171.198Z" fill="#4D5648"/>
<path fill-rule="evenodd" clip-rule="evenodd" d="M200.183 173.938C201.481 173.938 202.534 172.712 202.534 171.198C202.534 169.685 201.481 168.459 200.183 168.459C198.884 168.459 197.832 169.685 197.832 171.198C197.832 172.712 198.884 173.938 200.183 173.938ZM200.183 175.037C202.002 175.037 203.477 173.319 203.477 171.198C203.477 169.078 202.002 167.36 200.183 167.36C198.364 167.36 196.889 169.078 196.889 171.198C196.889 173.319 198.364 175.037 200.183 175.037Z" fill="white"/>
<path d="M233.95 195.194C233.95 197.314 232.475 199.033 230.655 199.033C228.836 199.033 227.361 197.314 227.361 195.194C227.361 193.074 228.836 191.355 230.655 191.355C232.475 191.355 233.95 193.074 233.95 195.194Z" fill="#47443E"/>
<path fill-rule="evenodd" clip-rule="evenodd" d="M230.655 197.934C231.954 197.934 233.006 196.707 233.006 195.194C233.006 193.681 231.954 192.454 230.655 192.454C229.357 192.454 228.304 193.681 228.304 195.194C228.304 196.707 229.357 197.934 230.655 197.934ZM230.655 199.033C232.475 199.033 233.95 197.314 233.95 195.194C233.95 193.074 232.475 191.355 230.655 191.355C228.836 191.355 227.361 193.074 227.361 195.194C227.361 197.314 228.836 199.033 230.655 199.033Z" fill="white"/>
<path d="M317.126 139.53C317.126 141.65 315.652 143.369 313.832 143.369C312.013 143.369 310.538 141.65 310.538 139.53C310.538 137.41 312.013 135.691 313.832 135.691C315.652 135.691 317.126 137.41 317.126 139.53Z" fill="#93A47C"/>
<path fill-rule="evenodd" clip-rule="evenodd" d="M313.832 142.27C315.131 142.27 316.183 141.043 316.183 139.53C316.183 138.017 315.131 136.79 313.832 136.79C312.534 136.79 311.481 138.017 311.481 139.53C311.481 141.043 312.534 142.27 313.832 142.27ZM313.832 143.369C315.652 143.369 317.126 141.65 317.126 139.53C317.126 137.41 315.652 135.691 313.832 135.691C312.013 135.691 310.538 137.41 310.538 139.53C310.538 141.65 312.013 143.369 313.832 143.369Z" fill="white"/>
<path d="M390.422 176.959C390.422 179.079 388.947 180.798 387.128 180.798C385.309 180.798 383.834 179.079 383.834 176.959C383.834 174.839 385.309 173.12 387.128 173.12C388.947 173.12 390.422 174.839 390.422 176.959Z" fill="#738F8C"/>
<path fill-rule="evenodd" clip-rule="evenodd" d="M387.128 179.699C388.426 179.699 389.479 178.472 389.479 176.959C389.479 175.446 388.426 174.219 387.128 174.219C385.829 174.219 384.777 175.446 384.777 176.959C384.777 178.472 385.829 179.699 387.128 179.699ZM387.128 180.798C388.947 180.798 390.422 179.079 390.422 176.959C390.422 174.839 388.947 173.12 387.128 173.12C385.309 173.12 383.834 174.839 383.834 176.959C383.834 179.079 385.309 180.798 387.128 180.798Z" fill="white"/>
<path d="M486.773 202.872C486.773 204.992 485.298 206.711 483.479 206.711C481.66 206.711 480.185 204.992 480.185 202.872C480.185 200.752 481.66 199.033 483.479 199.033C485.298 199.033 486.773 200.752 486.773 202.872Z" fill="#789186"/>
<path fill-rule="evenodd" clip-rule="evenodd" d="M483.479 205.612C484.777 205.612 485.83 204.385 485.83 202.872C485.83 201.359 484.777 200.132 483.479 200.132C482.181 200.132 481.128 201.359 481.128 202.872C481.128 204.385 482.181 205.612 483.479 205.612ZM483.479 206.711C485.298 206.711 486.773 204.992 486.773 202.872C486.773 200.752 485.298 199.033 483.479 199.033C481.66 199.033 480.185 200.752 480.185 202.872C480.185 204.992 481.66 206.711 483.479 206.711Z" fill="white"/>
<path d="M518.067 146.251C518.067 148.371 516.592 150.09 514.773 150.09C512.954 150.09 511.479 148.371 511.479 146.251C511.479 144.131 512.954 142.412 514.773 142.412C516.592 142.412 518.067 144.131 518.067 146.251Z" fill="#8CBABB"/>
<path fill-rule="evenodd" clip-rule="evenodd" d="M514.773 148.991C516.071 148.991 517.124 147.764 517.124 146.251C517.124 144.738 516.071 143.511 514.773 143.511C513.474 143.511 512.422 144.738 512.422 146.251C512.422 147.764 513.474 148.991 514.773 148.991ZM514.773 150.09C516.592 150.09 518.067 148.371 518.067 146.251C518.067 144.131 516.592 142.412 514.773 142.412C512.954 142.412 511.479 144.131 511.479 146.251C511.479 148.371 512.954 150.09 514.773 150.09Z" fill="white"/>
<path d="M571.595 189.437C571.595 191.557 570.12 193.276 568.301 193.276C566.482 193.276 565.007 191.557 565.007 189.437C565.007 187.317 566.482 185.598 568.301 185.598C570.12 185.598 571.595 187.317 571.595 189.437Z" fill="#414847"/>
<path fill-rule="evenodd" clip-rule="evenodd" d="M568.301 192.176C569.599 192.176 570.652 190.95 570.652 189.437C570.652 187.924 569.599 186.697 568.301 186.697C567.003 186.697 565.95 187.924 565.95 189.437C565.95 190.95 567.003 192.176 568.301 192.176ZM568.301 193.276C570.12 193.276 571.595 191.557 571.595 189.437C571.595 187.317 570.12 185.598 568.301 185.598C566.482 185.598 565.007 187.317 565.007 189.437C565.007 191.557 566.482 193.276 568.301 193.276Z" fill="white"/>
<path d="M671.246 175.039C671.246 177.159 669.771 178.877 667.952 178.877C666.133 178.877 664.658 177.159 664.658 175.039C664.658 172.918 666.133 171.2 667.952 171.2C669.771 171.2 671.246 172.918 671.246 175.039Z" fill="#577379"/>
<path fill-rule="evenodd" clip-rule="evenodd" d="M667.952 177.778C669.251 177.778 670.303 176.552 670.303 175.039C670.303 173.525 669.251 172.299 667.952 172.299C666.654 172.299 665.601 173.525 665.601 175.039C665.601 176.552 666.654 177.778 667.952 177.778ZM667.952 178.877C669.771 178.877 671.246 177.159 671.246 175.039C671.246 172.918 669.771 171.2 667.952 171.2C666.133 171.2 664.658 172.918 664.658 175.039C664.658 177.159 666.133 178.877 667.952 178.877Z" fill="white"/>
<path d="M798.497 123.215C798.497 125.335 797.023 127.054 795.203 127.054C793.384 127.054 791.909 125.335 791.909 123.215C791.909 121.095 793.384 119.376 795.203 119.376C797.023 119.376 798.497 121.095 798.497 123.215Z" fill="#3E403A"/>
<path fill-rule="evenodd" clip-rule="evenodd" d="M795.203 125.955C796.502 125.955 797.554 124.728 797.554 123.215C797.554 121.702 796.502 120.475 795.203 120.475C793.905 120.475 792.852 121.702 792.852 123.215C792.852 124.728 793.905 125.955 795.203 125.955ZM795.203 127.054C797.023 127.054 798.497 125.335 798.497 123.215C798.497 121.095 797.023 119.376 795.203 119.376C793.384 119.376 791.909 121.095 791.909 123.215C791.909 125.335 793.384 127.054 795.203 127.054Z" fill="white"/>
<path d="M857.948 153.51C857.948 155.63 856.473 157.349 854.654 157.349C852.834 157.349 851.36 155.63 851.36 153.51C851.36 151.39 852.834 149.671 854.654 149.671C856.473 149.671 857.948 151.39 857.948 153.51Z" fill="#181A19"/>
<path fill-rule="evenodd" clip-rule="evenodd" d="M854.654 156.249C855.952 156.249 857.005 155.023 857.005 153.51C857.005 151.997 855.952 150.77 854.654 150.77C853.355 150.77 852.303 151.997 852.303 153.51C852.303 155.023 853.355 156.249 854.654 156.249ZM854.654 157.349C856.473 157.349 857.948 155.63 857.948 153.51C857.948 151.39 856.473 149.671 854.654 149.671C852.834 149.671 851.36 151.39 851.36 153.51C851.36 155.63 852.834 157.349 854.654 157.349Z" fill="white"/>
</svg>
