<svg width="732" height="206" viewBox="0 0 732 206" fill="none" xmlns="http://www.w3.org/2000/svg">
<path fill-rule="evenodd" clip-rule="evenodd" d="M705.902 127.197C705.902 127.448 705.727 127.652 705.512 127.652C699.451 127.652 696.221 129.213 691.056 131.708C690.653 131.903 690.237 132.103 689.808 132.31C689.088 132.655 688.269 132.442 687.45 131.952C686.623 131.458 685.72 130.638 684.779 129.611C682.895 127.554 680.785 124.589 678.726 121.486C677.345 119.405 675.978 117.248 674.712 115.249C674.089 114.267 673.491 113.323 672.928 112.445C672.07 111.11 671.293 109.928 670.628 108.988C669.955 108.039 669.419 107.369 669.04 107.032C658.92 98.0132 644.778 105.357 642.356 118.059C641.759 121.188 641.115 123.538 640.414 125.262C639.714 126.983 638.943 128.115 638.074 128.758C636.3 130.072 634.33 129.214 632.326 127.959C631.729 127.585 631.121 127.172 630.498 126.749C628.966 125.706 627.344 124.603 625.563 123.876C623.097 122.868 620.388 122.616 617.363 124.378C616.44 124.916 615.14 126.2 613.682 127.873C612.236 129.533 610.671 131.534 609.223 133.459C607.778 135.381 606.454 137.222 605.487 138.567L605.483 138.572C605 139.244 604.604 139.795 604.328 140.167C604.191 140.353 604.078 140.501 603.998 140.599C603.96 140.645 603.917 140.695 603.878 140.732L603.877 140.733C603.864 140.746 603.815 140.792 603.747 140.822C603.721 140.834 603.604 140.884 603.465 140.823C603.28 140.741 603.224 140.549 603.213 140.449C602.73 135.945 600.562 131.09 597.508 127.542C594.453 123.992 590.572 121.816 586.675 122.515C580.369 123.645 576.727 128.08 573.692 133.416C572.721 135.122 571.823 136.9 570.919 138.69C570.401 139.715 569.882 140.744 569.345 141.766C567.882 144.553 566.31 147.251 564.37 149.512C564.13 149.791 563.863 149.971 563.569 150.035C563.277 150.099 562.996 150.042 562.738 149.92C562.241 149.686 561.774 149.185 561.361 148.676C561.149 148.416 560.939 148.139 560.738 147.872L560.736 147.869C560.533 147.601 560.339 147.344 560.15 147.112C559.96 146.879 559.783 146.681 559.617 146.53C559.45 146.377 559.313 146.291 559.206 146.255C557.742 145.768 555.776 145.656 553.783 145.782C551.795 145.908 549.814 146.268 548.336 146.699C545.964 147.39 542.953 149.208 539.591 151.525C537.767 152.782 535.868 154.165 533.927 155.578C532.282 156.777 530.606 157.997 528.917 159.184C525.262 161.752 521.597 164.122 518.252 165.597C514.921 167.066 511.827 167.686 509.355 166.625C507.465 165.813 505.797 164.947 504.228 164.107C503.952 163.96 503.68 163.813 503.41 163.668C502.14 162.985 500.925 162.332 499.683 161.746C496.686 160.333 493.547 159.322 489.234 159.322C487.25 159.322 486.131 159.816 485.388 160.427C485.013 160.736 484.719 161.087 484.451 161.453C484.334 161.612 484.224 161.771 484.113 161.933L484.061 162.009C483.933 162.194 483.801 162.382 483.663 162.561C483.384 162.92 483.066 163.26 482.649 163.503C482.229 163.749 481.733 163.883 481.112 163.877C479.892 163.865 478.159 163.306 475.487 161.922C471.496 159.855 467.912 156.544 464.373 153.11C463.959 152.709 463.546 152.306 463.133 151.903C459.998 148.844 456.86 145.784 453.429 143.424C452.307 142.652 450.322 140.967 447.815 138.838C446.942 138.096 446.005 137.3 445.018 136.47C441.186 133.246 436.58 129.479 431.972 126.263C427.358 123.042 422.774 120.397 418.982 119.388C417.087 118.884 415.423 118.798 414.064 119.221C412.721 119.639 411.657 120.56 410.943 122.132C408.791 126.869 408.944 132.084 409.1 137.411C409.112 137.827 409.124 138.243 409.135 138.66C409.287 144.371 409.232 150.156 405.874 155.188C401.197 162.195 397.904 170.862 397.904 179.98C397.904 182.298 397.324 189.167 396.453 195.16C396.018 198.156 395.505 200.963 394.948 202.886C394.673 203.836 394.372 204.624 394.037 205.105C393.87 205.345 393.658 205.562 393.393 205.639C393.101 205.724 392.83 205.617 392.608 205.402C390.483 203.337 386.941 202.316 382.658 201.81C378.993 201.378 374.857 201.329 370.722 201.28C370.043 201.272 369.363 201.264 368.686 201.254C363.903 201.185 359.223 201.032 355.464 200.175C351.728 199.323 348.754 197.744 347.585 194.68C346.859 192.777 346.556 190.937 346.346 189.265C346.298 188.881 346.254 188.508 346.213 188.148C346.07 186.916 345.942 185.818 345.68 184.837C345.351 183.601 344.818 182.602 343.786 181.86C342.736 181.105 341.131 180.589 338.611 180.434C335.039 180.215 332.619 179.476 330.978 178.22C329.316 176.948 328.498 175.182 328.064 173.05C327.689 171.212 327.594 169.062 327.489 166.695C327.474 166.353 327.459 166.006 327.442 165.655C327.311 162.856 327.112 159.736 326.425 156.332C326.314 155.784 326.201 154.972 326.073 154.05C326.035 153.781 325.997 153.502 325.956 153.218C325.775 151.945 325.559 150.535 325.273 149.254C324.984 147.962 324.636 146.855 324.212 146.157C324.002 145.811 323.792 145.599 323.591 145.498C323.402 145.402 323.188 145.387 322.92 145.509C316.427 148.451 309.75 150.511 303.053 152.576L302.622 152.709C297.331 154.341 293.698 155.224 291.134 155.355C288.556 155.487 286.975 154.861 285.887 153.377C285.357 152.654 284.963 151.752 284.619 150.704C284.276 149.656 283.972 148.433 283.635 147.059L283.592 146.887C282.922 144.16 282.094 140.789 280.526 136.769C279.17 133.292 277.29 130.91 275.144 128.776C274.183 127.82 273.173 126.918 272.129 125.987C272.004 125.875 271.878 125.762 271.751 125.649C270.577 124.599 269.367 123.502 268.167 122.259C267.294 121.355 265.92 120.409 264.302 119.404C263.593 118.963 262.824 118.504 262.039 118.035C261.075 117.458 260.085 116.867 259.146 116.274C257.421 115.186 255.769 114.037 254.512 112.819C253.266 111.612 252.336 110.269 252.185 108.776C251.883 105.775 250.863 104.392 249.558 103.893C248.196 103.371 246.389 103.753 244.423 104.667C240.512 106.486 236.305 110.25 234.573 111.864C232.462 113.832 230.373 115.752 228.311 117.646C213.213 131.518 199.604 144.022 189.626 164.371L189.552 164.523C188.637 166.391 185.46 172.876 182.382 177.053C181.589 178.13 180.79 179.07 180.028 179.74C179.278 180.4 178.506 180.849 177.775 180.831C176.993 180.811 176.372 180.265 175.946 179.253C175.53 178.263 175.272 176.778 175.184 174.725C174.919 168.559 172.973 161.968 170.458 155.568C168.494 150.568 166.195 145.714 164.099 141.289C163.512 140.049 162.941 138.844 162.397 137.678C152.161 115.713 140.812 93.0818 123.01 78.5991C121.719 77.5483 120.564 76.6327 119.517 75.8023C116.727 73.5901 114.7 71.9823 112.875 70.0333C110.348 67.3342 108.207 63.983 104.906 57.4914C104.663 57.012 104.418 56.5291 104.172 56.0438C100.804 49.3991 97.2042 42.2989 92.7664 37.4023C90.3919 34.7824 87.7947 32.8146 84.8856 31.8847C81.9819 30.9566 78.7388 31.0533 75.0537 32.6149C73.77 33.1589 72.3969 34.2624 70.9995 35.7241C69.606 37.1818 68.2094 38.9732 66.8774 40.8629C64.704 43.9464 62.7212 47.2639 61.2146 49.7847C60.8732 50.3559 60.5562 50.8863 60.267 51.3637C49.5084 69.1253 35.7231 82.9751 21.7755 96.988C19.5295 99.2446 17.2793 101.505 15.0368 103.787C14.8744 103.953 14.6279 103.933 14.4861 103.744C14.3444 103.555 14.3611 103.267 14.5234 103.102C16.7727 100.813 19.0271 98.5482 21.275 96.2895C35.2261 82.2719 48.9306 68.5021 59.6294 50.8392C59.9144 50.3687 60.2283 49.8435 60.5674 49.276C62.0737 46.7556 64.079 43.4002 66.2743 40.2856C67.6202 38.3763 69.0445 36.5469 70.4782 35.0473C71.9078 33.5517 73.368 32.3615 74.787 31.7601C78.6097 30.1402 82.0183 30.0251 85.0921 31.0075C88.1604 31.9883 90.8664 34.0534 93.303 36.7419C97.8246 41.7309 101.478 48.9392 104.83 55.554C105.081 56.0489 105.33 56.5406 105.578 57.0277C108.867 63.4959 110.961 66.7551 113.403 69.3628C115.183 71.2642 117.145 72.8206 119.91 75.0134C120.965 75.8494 122.135 76.7779 123.457 77.8533C141.429 92.4742 152.853 115.292 163.083 137.244C163.621 138.398 164.189 139.597 164.773 140.831C166.871 145.26 169.19 150.154 171.168 155.189C173.697 161.626 175.691 168.342 175.963 174.679C176.049 176.691 176.3 178.029 176.647 178.852C176.984 179.654 177.382 179.911 177.792 179.922C178.253 179.933 178.848 179.638 179.558 179.014C180.257 178.399 181.014 177.514 181.79 176.461C184.817 172.353 187.963 165.932 188.878 164.064L188.949 163.92C199.007 143.407 212.741 130.791 227.832 116.928C229.893 115.034 231.98 113.117 234.086 111.154C235.815 109.541 240.103 105.697 244.134 103.822C246.139 102.89 248.167 102.403 249.802 103.028C251.494 103.676 252.636 105.456 252.961 108.67C253.075 109.802 253.804 110.95 255.011 112.119C256.206 113.278 257.801 114.392 259.517 115.474C260.469 116.075 261.428 116.648 262.373 117.212C263.153 117.678 263.923 118.138 264.67 118.602C266.284 119.604 267.735 120.595 268.685 121.579C269.863 122.799 271.053 123.878 272.226 124.927C272.353 125.04 272.479 125.153 272.605 125.266C273.646 126.195 274.673 127.112 275.65 128.084C277.849 130.27 279.818 132.755 281.237 136.393C282.829 140.474 283.67 143.9 284.341 146.629L284.385 146.809C284.725 148.192 285.019 149.375 285.348 150.379C285.677 151.381 286.032 152.175 286.481 152.786C287.349 153.971 288.644 154.572 291.1 154.447C293.57 154.32 297.128 153.463 302.422 151.83L302.835 151.702C309.545 149.633 316.186 147.585 322.637 144.661C323.081 144.46 323.509 144.465 323.901 144.663C324.281 144.854 324.591 145.208 324.849 145.632C325.359 146.472 325.735 147.715 326.028 149.025C326.324 150.348 326.545 151.793 326.726 153.069C326.769 153.368 326.809 153.656 326.847 153.931C326.974 154.844 327.081 155.61 327.185 156.124C327.888 159.609 328.09 162.795 328.222 165.605C328.238 165.961 328.254 166.309 328.269 166.651C328.375 169.032 328.467 171.089 328.823 172.84C329.225 174.815 329.956 176.35 331.406 177.46C332.877 178.586 335.133 179.31 338.652 179.526C341.229 179.684 342.985 180.215 344.196 181.086C345.425 181.97 346.055 183.176 346.426 184.567C346.709 185.628 346.848 186.829 346.992 188.076C347.033 188.425 347.074 188.778 347.118 189.133C347.325 190.777 347.616 192.521 348.298 194.311C349.299 196.933 351.912 198.438 355.614 199.282C359.293 200.121 363.903 200.276 368.696 200.345C369.369 200.354 370.046 200.362 370.724 200.37C374.856 200.419 379.033 200.468 382.736 200.905C387.031 201.412 390.786 202.448 393.108 204.703C393.181 204.774 393.203 204.756 393.204 204.756C393.231 204.748 393.31 204.705 393.431 204.532C393.672 204.186 393.937 203.532 394.209 202.595C394.745 200.744 395.25 197.995 395.684 195.008C396.552 189.034 397.123 182.223 397.123 179.98C397.123 170.608 400.506 161.749 405.258 154.629C408.426 149.882 408.508 144.409 408.355 138.688C408.344 138.261 408.331 137.832 408.318 137.402C408.161 132.123 407.999 126.668 410.253 121.706C411.073 119.903 412.317 118.824 413.862 118.342C415.392 117.866 417.196 117.98 419.156 118.501C423.074 119.544 427.744 122.251 432.374 125.482C437.01 128.719 441.638 132.505 445.475 135.733C446.483 136.581 447.434 137.389 448.316 138.137C450.805 140.251 452.738 141.893 453.826 142.64C457.316 145.041 460.506 148.153 463.635 151.207C464.048 151.61 464.461 152.012 464.872 152.411C468.415 155.848 471.923 159.081 475.804 161.091C478.46 162.466 480.069 162.957 481.119 162.968C481.634 162.973 482.005 162.862 482.299 162.69C482.596 162.517 482.839 162.267 483.083 161.952C483.205 161.793 483.325 161.623 483.453 161.438C483.579 161.256 483.714 161.059 483.858 160.862C484.149 160.465 484.49 160.053 484.938 159.684C485.844 158.938 487.133 158.412 489.234 158.412C493.669 158.412 496.908 159.456 499.976 160.903C501.237 161.498 502.472 162.162 503.743 162.846C504.011 162.99 504.281 163.135 504.553 163.281C506.118 164.118 507.764 164.972 509.625 165.771C511.82 166.714 514.686 166.197 517.976 164.746C521.251 163.302 524.865 160.968 528.514 158.405C530.171 157.241 531.846 156.021 533.495 154.82C535.454 153.395 537.377 151.994 539.194 150.742C542.553 148.428 545.652 146.543 548.147 145.817C549.676 145.371 551.706 145.003 553.74 144.874C555.768 144.746 557.834 144.852 559.42 145.381C559.664 145.462 559.892 145.626 560.098 145.814C560.307 146.004 560.514 146.238 560.716 146.485C560.916 146.73 561.118 146.998 561.317 147.262L561.324 147.271C561.527 147.54 561.727 147.805 561.927 148.051C562.337 148.555 562.704 148.923 563.031 149.077C563.185 149.15 563.313 149.166 563.425 149.141C563.536 149.117 563.667 149.045 563.818 148.869C565.692 146.685 567.225 144.061 568.68 141.291C569.201 140.299 569.714 139.283 570.229 138.263C571.142 136.456 572.061 134.637 573.041 132.913C576.128 127.488 579.933 122.803 586.556 121.616C590.785 120.858 594.902 123.229 598.059 126.898C601.011 130.327 603.179 134.948 603.865 139.399C604.126 139.043 604.472 138.563 604.885 137.988L604.89 137.981C605.857 136.636 607.185 134.789 608.636 132.859C610.089 130.927 611.668 128.908 613.134 127.225C614.589 125.556 615.968 124.175 617.014 123.565C620.269 121.668 623.205 121.948 625.822 123.017C627.677 123.776 629.405 124.951 630.96 126.008C631.566 126.42 632.145 126.814 632.696 127.158C634.725 128.428 636.299 128.995 637.656 127.991C638.352 127.475 639.042 126.513 639.709 124.872C640.375 123.235 641.003 120.957 641.594 117.862C644.131 104.553 658.912 96.8611 669.514 106.309C669.971 106.717 670.558 107.462 671.23 108.409C671.908 109.366 672.694 110.563 673.553 111.9C674.122 112.787 674.723 113.736 675.347 114.721C676.611 116.715 677.968 118.856 679.344 120.93C681.399 124.028 683.477 126.944 685.313 128.947C686.232 129.95 687.073 130.705 687.806 131.143C688.548 131.586 689.105 131.663 689.51 131.469C689.943 131.261 690.362 131.059 690.769 130.862C695.935 128.365 699.293 126.742 705.512 126.742C705.727 126.742 705.902 126.946 705.902 127.197Z" fill="white"/>
<path d="M57.7749 8.70063H59.9506C61.2699 8.70063 61.8658 7.93515 61.8658 6.92096C61.8658 5.89708 61.2505 5.31893 60.6879 5.2834V5.2188C61.209 5.06377 61.6441 4.65034 61.6441 3.82348C61.6441 2.84482 61.0621 2.0858 59.8536 2.0858H57.7749V8.70063ZM58.6313 7.84471V5.7259H59.898C60.5853 5.7259 61.0149 6.24268 61.0149 6.87251C61.0149 7.42805 60.6907 7.84471 59.8675 7.84471H58.6313ZM58.6313 4.94749V2.93526H59.801C60.48 2.93526 60.8043 3.35192 60.8043 3.901C60.8043 4.54052 60.3553 4.94749 59.7788 4.94749H58.6313Z" fill="white"/>
<path d="M64.0524 8.70063H67.6444V7.84148H64.9088V5.81633H67.4254V4.96041H64.9088V2.94495H67.6111V2.0858H64.0524V8.70063Z" fill="white"/>
<path d="M69.4962 8.70063H69.7401C71.0317 8.70063 71.3421 7.58309 71.417 5.45781L71.5057 2.93203H73.443V8.70063H74.2884V2.0858H70.6991L70.6021 5.19296C70.5411 7.10829 70.3416 7.80918 69.6625 7.82856L69.4962 7.83502V8.70063Z" fill="white"/>
<path d="M76.7063 2.0858V8.70063H77.4935L80.3787 3.84932H80.4314V8.70063H81.2878V2.0858H80.4951L77.6071 6.94357H77.5544V2.0858H76.7063Z" fill="white"/>
<path d="M87.0698 8.70063H88.1147L85.7727 5.07669L88.1286 2.0858H87.067L84.8581 4.87966H84.5643V2.0858H83.7078V8.70063H84.5643V5.73559H85.1519L87.0698 8.70063Z" fill="white"/>
<path d="M90.153 2.0858V8.70063H90.9401L93.8254 3.84932H93.878V8.70063H94.7345V2.0858H93.9418L91.0537 6.94357H91.0011V2.0858H90.153Z" fill="white"/>
<path d="M97.1545 2.0858V8.70063H97.9416L100.827 3.84932H100.88V8.70063H101.736V2.0858H100.943L98.0553 6.94357H98.0026V2.0858H97.1545ZM99.9899 0.40625C99.9899 0.73247 99.8346 1.01993 99.4466 1.01993C99.053 1.01993 98.9062 0.72924 98.9062 0.40625H98.2271C98.2271 1.13298 98.7011 1.63361 99.4466 1.63361C100.198 1.63361 100.672 1.13298 100.672 0.40625H99.9899Z" fill="white"/>
<path d="M54.2246 19.6151H55.081V16.7308H57.9109V19.6151H58.7701V13.0003H57.9109V15.8749H55.081V13.0003H54.2246V19.6151Z" fill="white"/>
<path d="M66.1187 16.3077C66.1187 14.1921 65.0323 12.9098 63.5633 12.9098C62.0888 12.9098 61.0051 14.1921 61.0051 16.3077C61.0051 18.42 62.0888 19.7055 63.5633 19.7055C65.0323 19.7055 66.1187 18.4233 66.1187 16.3077ZM65.2706 16.3077C65.2706 17.9194 64.5389 18.7947 63.5633 18.7947C62.5849 18.7947 61.856 17.9194 61.856 16.3077C61.856 14.696 62.5849 13.8207 63.5633 13.8207C64.5389 13.8207 65.2706 14.696 65.2706 16.3077Z" fill="white"/>
<path d="M68.3572 19.6151H70.533C71.8522 19.6151 72.4481 18.8496 72.4481 17.8354C72.4481 16.8116 71.8328 16.2334 71.2702 16.1979V16.1333C71.7913 15.9782 72.2264 15.5648 72.2264 14.738C72.2264 13.7593 71.6444 13.0003 70.4359 13.0003H68.3572V19.6151ZM69.2137 18.7592V16.6404H70.4803C71.1677 16.6404 71.5973 17.1572 71.5973 17.787C71.5973 18.3425 71.273 18.7592 70.4498 18.7592H69.2137ZM69.2137 15.862V13.8497H70.3833C71.0623 13.8497 71.3866 14.2664 71.3866 14.8155C71.3866 15.455 70.9376 15.862 70.3611 15.862H69.2137Z" fill="white"/>
<path d="M78.174 13.0003H74.6347V19.6151H75.4911V13.8594H78.174V13.0003Z" fill="white"/>
<path d="M85.0044 16.3077C85.0044 14.1921 83.9179 12.9098 82.449 12.9098C80.9745 12.9098 79.8908 14.1921 79.8908 16.3077C79.8908 18.42 80.9745 19.7055 82.449 19.7055C83.9179 19.7055 85.0044 18.4233 85.0044 16.3077ZM84.1563 16.3077C84.1563 17.9194 83.4246 18.7947 82.449 18.7947C81.4706 18.7947 80.7417 17.9194 80.7417 16.3077C80.7417 14.696 81.4706 13.8207 82.449 13.8207C83.4246 13.8207 84.1563 14.696 84.1563 16.3077Z" fill="white"/>
<path d="M87.2429 19.6151H88.0993V17.2896H89.2634C90.5799 17.2896 91.2313 16.3626 91.2313 15.1417C91.2313 13.924 90.5855 13.0003 89.2662 13.0003H87.2429V19.6151ZM88.0993 16.4434V13.8562H89.1747C90.0228 13.8562 90.3693 14.3924 90.3693 15.1417C90.3693 15.891 90.0228 16.4434 89.1858 16.4434H88.0993Z" fill="white"/>
<path d="M98.3367 16.3077C98.3367 14.1921 97.2503 12.9098 95.7813 12.9098C94.3068 12.9098 93.2231 14.1921 93.2231 16.3077C93.2231 18.42 94.3068 19.7055 95.7813 19.7055C97.2503 19.7055 98.3367 18.4233 98.3367 16.3077ZM97.4886 16.3077C97.4886 17.9194 96.7569 18.7947 95.7813 18.7947C94.8029 18.7947 94.074 17.9194 94.074 16.3077C94.074 14.696 94.8029 13.8207 95.7813 13.8207C96.7569 13.8207 97.4886 14.696 97.4886 16.3077Z" fill="white"/>
<path d="M100.146 21.2139H100.966V19.6151H104.777V21.2042H105.597V18.7689H104.954V13.0003H101.454L101.321 15.7941C101.235 17.6352 100.9 18.3942 100.52 18.7689H100.146V21.2139ZM101.529 18.7689C101.853 18.1649 102.072 17.1927 102.141 15.7941L102.23 13.8594H104.134V18.7689H101.529Z" fill="white"/>
<path d="M4.54078 113.958H0.161621V120.572H1.01528V114.81H3.68712V120.572H4.54078V113.958Z" fill="white"/>
<path d="M11.7356 116.109C11.5416 114.694 10.5909 113.867 9.39083 113.867C7.92188 113.867 6.83817 115.149 6.83817 117.265C6.83817 119.381 7.91633 120.663 9.39083 120.663C10.6381 120.663 11.5499 119.752 11.7356 118.444L10.8709 118.441C10.724 119.287 10.1142 119.752 9.39638 119.752C8.42354 119.752 7.68906 118.883 7.68906 117.265C7.68906 115.66 8.42077 114.778 9.39915 114.778C10.1225 114.778 10.7295 115.253 10.8709 116.109H11.7356Z" fill="white"/>
<path d="M17.2931 120.572H18.338L15.996 116.949L18.3519 113.958H17.2904L15.0814 116.751H14.7876V113.958H13.9312V120.572H14.7876V117.607H15.3752L17.2931 120.572Z" fill="white"/>
<path d="M25.025 117.265C25.025 115.149 23.9385 113.867 22.4695 113.867C20.995 113.867 19.9113 115.149 19.9113 117.265C19.9113 119.377 20.995 120.663 22.4695 120.663C23.9385 120.663 25.025 119.381 25.025 117.265ZM24.1769 117.265C24.1769 118.877 23.4452 119.752 22.4695 119.752C21.4912 119.752 20.7622 118.877 20.7622 117.265C20.7622 115.653 21.4912 114.778 22.4695 114.778C23.4452 114.778 24.1769 115.653 24.1769 117.265Z" fill="white"/>
<path d="M27.2635 120.572H29.4392C30.7585 120.572 31.3544 119.807 31.3544 118.793C31.3544 117.769 30.7391 117.191 30.1764 117.155V117.091C30.6975 116.936 31.1327 116.522 31.1327 115.695C31.1327 114.717 30.5506 113.958 29.3422 113.958H27.2635V120.572ZM28.1199 119.717V117.598H29.3865C30.0739 117.598 30.5035 118.115 30.5035 118.744C30.5035 119.3 30.1792 119.717 29.3561 119.717H28.1199ZM28.1199 116.819V114.807H29.2895C29.9686 114.807 30.2929 115.224 30.2929 115.773C30.2929 116.412 29.8439 116.819 29.2674 116.819H28.1199Z" fill="white"/>
<path d="M127.547 139.373H129.315V145.129H130.169V139.373H131.94V138.514H127.547V139.373Z" fill="white"/>
<path d="M134.081 145.129H136.257C137.576 145.129 138.172 144.363 138.172 143.349C138.172 142.325 137.557 141.747 136.994 141.712V141.647C137.515 141.492 137.95 141.078 137.95 140.252C137.95 139.273 137.368 138.514 136.16 138.514H134.081V145.129ZM134.938 144.273V142.154H136.204C136.892 142.154 137.321 142.671 137.321 143.301C137.321 143.856 136.997 144.273 136.174 144.273H134.938ZM134.938 141.376V139.363H136.107C136.786 139.363 137.111 139.78 137.111 140.329C137.111 140.969 136.662 141.376 136.085 141.376H134.938Z" fill="white"/>
<path d="M140.359 145.129H143.951V144.27H141.215V142.244H143.732V141.389H141.215V139.373H143.917V138.514H140.359V145.129Z" fill="white"/>
<path d="M146.232 145.129H147.088V142.803H148.253C149.569 142.803 150.22 141.876 150.22 140.655C150.22 139.438 149.575 138.514 148.255 138.514H146.232V145.129ZM147.088 141.957V139.37H148.164C149.012 139.37 149.358 139.906 149.358 140.655C149.358 141.405 149.012 141.957 148.175 141.957H147.088Z" fill="white"/>
<path d="M153.26 141.182V138.514H152.401V145.129H154.527C155.79 145.129 156.514 144.308 156.511 143.123C156.514 141.941 155.79 141.182 154.527 141.182H153.26ZM153.26 142.022H154.527C155.261 142.022 155.666 142.513 155.666 143.11C155.666 143.724 155.261 144.289 154.527 144.289H153.26V142.022Z" fill="white"/>
<path d="M204.166 165.139V158.524H202.143C200.827 158.524 200.178 159.38 200.178 160.598C200.178 161.486 200.525 162.161 201.22 162.461L199.962 165.139H200.938L202.091 162.636C202.11 162.636 202.127 162.636 202.146 162.636H203.31V165.139H204.166ZM203.31 161.777H202.224C201.389 161.777 201.04 161.344 201.04 160.598C201.04 159.848 201.389 159.38 202.235 159.38H203.31V161.777Z" fill="white"/>
<path d="M206.582 165.139H207.438V162.813H208.602C209.919 162.813 210.57 161.886 210.57 160.665C210.57 159.448 209.924 158.524 208.605 158.524H206.582V165.139ZM207.438 161.967V159.38H208.513C209.362 159.38 209.708 159.916 209.708 160.665C209.708 161.415 209.362 161.967 208.525 161.967H207.438Z" fill="white"/>
<path d="M217.675 161.831C217.675 159.716 216.589 158.434 215.12 158.434C213.646 158.434 212.562 159.716 212.562 161.831C212.562 163.944 213.646 165.229 215.12 165.229C216.589 165.229 217.675 163.947 217.675 161.831ZM216.827 161.831C216.827 163.443 216.096 164.318 215.12 164.318C214.142 164.318 213.413 163.443 213.413 161.831C213.413 160.22 214.142 159.344 215.12 159.344C216.096 159.344 216.827 160.22 216.827 161.831Z" fill="white"/>
<path d="M224.628 160.675C224.434 159.26 223.484 158.434 222.284 158.434C220.815 158.434 219.731 159.716 219.731 161.831C219.731 163.947 220.809 165.229 222.284 165.229C223.531 165.229 224.443 164.318 224.628 163.01L223.764 163.007C223.617 163.853 223.007 164.318 222.289 164.318C221.316 164.318 220.582 163.45 220.582 161.831C220.582 160.226 221.314 159.344 222.292 159.344C223.015 159.344 223.622 159.819 223.764 160.675H224.628Z" fill="white"/>
<path d="M226.394 165.139H226.638C227.93 165.139 228.24 164.021 228.315 161.896L228.404 159.37H230.341V165.139H231.187V158.524H227.597L227.5 161.631C227.439 163.547 227.24 164.247 226.561 164.267L226.394 164.273V165.139Z" fill="white"/>
<path d="M234.084 165.139L234.605 163.388H236.822L237.341 165.139H238.25L236.207 158.524H235.218L233.175 165.139H234.084ZM234.855 162.548L235.692 159.726H235.736L236.573 162.548H234.855Z" fill="white"/>
<path d="M240.24 165.139H242.416C243.735 165.139 244.331 164.373 244.331 163.359C244.331 162.335 243.716 161.757 243.153 161.722V161.657C243.674 161.502 244.109 161.089 244.109 160.262C244.109 159.283 243.527 158.524 242.319 158.524H240.24V165.139ZM241.097 164.283V162.164H242.363C243.051 162.164 243.48 162.681 243.48 163.311C243.48 163.866 243.156 164.283 242.333 164.283H241.097ZM241.097 161.386V159.373H242.266C242.945 159.373 243.27 159.79 243.27 160.339C243.27 160.979 242.821 161.386 242.244 161.386H241.097Z" fill="white"/>
<path d="M246.088 165.139H246.332C247.623 165.139 247.934 164.021 248.009 161.896L248.097 159.37H250.035V165.139H250.88V158.524H247.291L247.194 161.631C247.133 163.547 246.933 164.247 246.254 164.267L246.088 164.273V165.139Z" fill="white"/>
<path d="M254.163 161.192V158.524H253.304V165.139H255.429C256.693 165.139 257.417 164.318 257.414 163.133C257.417 161.951 256.693 161.192 255.429 161.192H254.163ZM254.163 162.032H255.429C256.164 162.032 256.569 162.523 256.569 163.12C256.569 163.734 256.164 164.299 255.429 164.299H254.163V162.032Z" fill="white"/>
<path d="M265.162 103.952V110.567H265.977V105.777H266.03L267.704 110.557H268.38L270.054 105.78H270.107V110.567H270.922V103.952H269.882L268.075 109.094H268.009L266.201 103.952H265.162Z" fill="white"/>
<path d="M273.962 110.567L274.483 108.816H276.7L277.218 110.567H278.127L276.085 103.952H275.095L273.053 110.567H273.962ZM274.732 107.976L275.569 105.154H275.614L276.451 107.976H274.732Z" fill="white"/>
<path d="M280.118 110.567H280.974V107.683H283.804V110.567H284.663V103.952H283.804V106.827H280.974V103.952H280.118V110.567Z" fill="white"/>
<path d="M286.801 104.811H288.57V110.567H289.423V104.811H291.194V103.952H286.801V104.811Z" fill="white"/>
<path d="M293.738 110.657H294.126C295.013 110.657 295.307 110.079 295.556 109.42L297.518 103.952H296.62L295.295 107.776L293.807 103.952H292.898L294.894 108.916L294.813 109.152C294.691 109.498 294.503 109.779 294.079 109.779H293.738V110.657Z" fill="white"/>
<path d="M299.499 110.567H300.355V108.241H301.52C302.836 108.241 303.487 107.314 303.487 106.093C303.487 104.876 302.842 103.952 301.522 103.952H299.499V110.567ZM300.355 107.395V104.808H301.431C302.279 104.808 302.625 105.344 302.625 106.093C302.625 106.843 302.279 107.395 301.442 107.395H300.355Z" fill="white"/>
<path d="M310.593 107.259C310.593 105.144 309.506 103.862 308.037 103.862C306.563 103.862 305.479 105.144 305.479 107.259C305.479 109.372 306.563 110.657 308.037 110.657C309.506 110.657 310.593 109.375 310.593 107.259ZM309.745 107.259C309.745 108.871 309.013 109.746 308.037 109.746C307.059 109.746 306.33 108.871 306.33 107.259C306.33 105.648 307.059 104.772 308.037 104.772C309.013 104.772 309.745 105.648 309.745 107.259Z" fill="white"/>
<path d="M312.831 110.567H315.007C316.326 110.567 316.922 109.801 316.922 108.787C316.922 107.763 316.307 107.185 315.744 107.15V107.085C316.265 106.93 316.7 106.517 316.7 105.69C316.7 104.711 316.118 103.952 314.91 103.952H312.831V110.567ZM313.688 109.711V107.592H314.954C315.642 107.592 316.071 108.109 316.071 108.739C316.071 109.294 315.747 109.711 314.924 109.711H313.688ZM313.688 106.814V104.801H314.857C315.536 104.801 315.861 105.218 315.861 105.767C315.861 106.407 315.412 106.814 314.835 106.814H313.688Z" fill="white"/>
<path d="M324.039 107.259C324.039 105.144 322.953 103.862 321.484 103.862C320.01 103.862 318.926 105.144 318.926 107.259C318.926 109.372 320.01 110.657 321.484 110.657C322.953 110.657 324.039 109.375 324.039 107.259ZM323.191 107.259C323.191 108.871 322.46 109.746 321.484 109.746C320.506 109.746 319.777 108.871 319.777 107.259C319.777 105.648 320.506 104.772 321.484 104.772C322.46 104.772 323.191 105.648 323.191 107.259Z" fill="white"/>
<path d="M309.507 136.037H310.552L308.21 132.413L310.566 129.422H309.505L307.296 132.216H307.002V129.422H306.146V136.037H307.002V133.072H307.59L309.507 136.037Z" fill="white"/>
<path d="M317.239 132.729C317.239 130.614 316.153 129.332 314.684 129.332C313.209 129.332 312.126 130.614 312.126 132.729C312.126 134.842 313.209 136.127 314.684 136.127C316.153 136.127 317.239 134.845 317.239 132.729ZM316.391 132.729C316.391 134.341 315.66 135.216 314.684 135.216C313.706 135.216 312.977 134.341 312.977 132.729C312.977 131.118 313.706 130.242 314.684 130.242C315.66 130.242 316.391 131.118 316.391 132.729Z" fill="white"/>
<path d="M318.962 130.281H320.73V136.037H321.584V130.281H323.355V129.422H318.962V130.281Z" fill="white"/>
<path d="M325.496 136.037H329.088V135.178H326.353V133.153H328.869V132.297H326.353V130.281H329.055V129.422H325.496V136.037Z" fill="white"/>
<path d="M330.94 136.037H331.184C332.475 136.037 332.786 134.919 332.861 132.794L332.949 130.268H334.887V136.037H335.732V129.422H332.143L332.046 132.529C331.985 134.444 331.785 135.145 331.106 135.165L330.94 135.171V136.037Z" fill="white"/>
<path d="M339.015 132.09V129.422H338.156V136.037H340.281C341.545 136.037 342.269 135.216 342.266 134.031C342.269 132.849 341.545 132.09 340.281 132.09H339.015ZM339.015 132.93H340.281C341.016 132.93 341.421 133.421 341.421 134.018C341.421 134.632 341.016 135.197 340.281 135.197H339.015V132.93Z" fill="white"/>
<path d="M344.481 136.037H345.337V133.153H348.167V136.037H349.026V129.422H348.167V132.297H345.337V129.422H344.481V136.037Z" fill="white"/>
<path d="M351.444 129.422V136.037H352.231L355.117 131.186H355.169V136.037H356.026V129.422H355.233L352.345 134.28H352.292V129.422H351.444Z" fill="white"/>
<path d="M358.559 129.422V131.605C358.557 133.081 359.324 133.663 360.566 133.663C361.112 133.663 361.583 133.582 361.991 133.446V136.037H362.839V129.422H361.991V132.594C361.567 132.726 361.04 132.807 360.566 132.807C359.826 132.807 359.405 132.516 359.405 131.605V129.422H358.559Z" fill="white"/>
<path d="M367.767 132.313H365.251V133.149H367.767V132.313Z" fill="white"/>
<path d="M372.027 129.422H371.229C371.198 129.603 370.766 130.439 369.937 130.439V131.26C370.58 131.26 371.026 130.963 371.121 130.769H371.168V136.037H372.027V129.422Z" fill="white"/>
<path d="M412.31 164.892H408.771V171.507H409.627V165.751H412.31V164.892Z" fill="white"/>
<path d="M414.017 171.507H414.261C415.552 171.507 415.863 170.389 415.937 168.264L416.026 165.738H417.963V171.507H418.809V164.892H415.22L415.123 167.999C415.062 169.914 414.862 170.615 414.183 170.634L414.017 170.641V171.507Z" fill="white"/>
<path d="M421.706 171.507L422.227 169.756H424.445L424.963 171.507H425.872L423.829 164.892H422.84L420.797 171.507H421.706ZM422.477 168.916L423.314 166.093H423.358L424.195 168.916H422.477Z" fill="white"/>
<path d="M429.761 171.597C430.92 171.597 431.77 170.79 431.768 169.691C431.77 168.855 431.335 168.254 430.581 168.118V168.067C431.175 167.889 431.56 167.346 431.557 166.604C431.56 165.631 430.875 164.801 429.783 164.801C428.741 164.801 427.904 165.534 427.876 166.61H428.705C428.724 166.003 429.215 165.635 429.772 165.635C430.351 165.635 430.731 166.045 430.728 166.655C430.731 167.295 430.29 167.715 429.661 167.715H429.182V168.529H429.661C430.448 168.529 430.903 168.994 430.903 169.659C430.903 170.302 430.423 170.738 429.755 170.738C429.14 170.738 428.661 170.37 428.627 169.782H427.757C427.793 170.861 428.614 171.597 429.761 171.597Z" fill="white"/>
<path d="M438.994 168.199C438.994 166.084 437.908 164.801 436.439 164.801C434.964 164.801 433.881 166.084 433.881 168.199C433.881 170.311 434.964 171.597 436.439 171.597C437.908 171.597 438.994 170.315 438.994 168.199ZM438.146 168.199C438.146 169.811 437.415 170.686 436.439 170.686C435.461 170.686 434.732 169.811 434.732 168.199C434.732 166.587 435.461 165.712 436.439 165.712C437.415 165.712 438.146 166.587 438.146 168.199Z" fill="white"/>
<path d="M441.233 171.507H443.409C444.728 171.507 445.324 170.741 445.324 169.727C445.324 168.703 444.708 168.125 444.146 168.089V168.025C444.667 167.87 445.102 167.456 445.102 166.629C445.102 165.651 444.52 164.892 443.312 164.892H441.233V171.507ZM442.089 170.651V168.532H443.356C444.043 168.532 444.473 169.049 444.473 169.678C444.473 170.234 444.149 170.651 443.325 170.651H442.089ZM442.089 167.753V165.741H443.259C443.938 165.741 444.262 166.158 444.262 166.707C444.262 167.346 443.813 167.753 443.237 167.753H442.089Z" fill="white"/>
<path d="M414.833 106.248H410.453V112.863H411.307V107.1H413.979V112.863H414.833V106.248Z" fill="white"/>
<path d="M417.313 112.863H420.905V112.003H418.169V109.978H420.686V109.122H418.169V107.107H420.872V106.248H417.313V112.863Z" fill="white"/>
<path d="M423.186 112.863H424.043V110.537H425.207C426.523 110.537 427.175 109.61 427.175 108.389C427.175 107.172 426.529 106.248 425.21 106.248H423.186V112.863ZM424.043 109.691V107.104H425.118C425.966 107.104 426.313 107.64 426.313 108.389C426.313 109.139 425.966 109.691 425.129 109.691H424.043Z" fill="white"/>
<path d="M429.349 106.248V112.863H430.164V108.073H430.217L431.891 112.853H432.567L434.241 108.076H434.294V112.863H435.109V106.248H434.07L432.262 111.39H432.196L430.389 106.248H429.349Z" fill="white"/>
<path d="M438.534 108.916V106.248H437.675V112.863H439.801C441.065 112.863 441.788 112.042 441.785 110.857C441.788 109.675 441.065 108.916 439.801 108.916H438.534ZM438.534 109.755H439.801C440.535 109.755 440.94 110.246 440.94 110.844C440.94 111.458 440.535 112.023 439.801 112.023H438.534V109.755Z" fill="white"/>
<path d="M467.027 141.193H468.795V146.949H469.649V141.193H471.42V140.334H467.027V141.193Z" fill="white"/>
<path d="M474.418 140.334H473.562V146.949H474.418V144.139H475.413C475.568 145.954 476.594 147.04 477.949 147.04C479.418 147.04 480.505 145.757 480.505 143.642C480.505 141.526 479.418 140.244 477.949 140.244C476.555 140.244 475.51 141.391 475.399 143.303H474.418V140.334ZM479.656 143.642C479.656 145.253 478.925 146.129 477.949 146.129C476.971 146.129 476.242 145.253 476.242 143.642C476.242 142.03 476.971 141.155 477.949 141.155C478.925 141.155 479.656 142.03 479.656 143.642Z" fill="white"/>
<path d="M482.598 140.334V146.949H483.413V142.159H483.466L485.14 146.939H485.816L487.49 142.162H487.543V146.949H488.358V140.334H487.318L485.511 145.476H485.445L483.638 140.334H482.598Z" fill="white"/>
<path d="M490.918 146.949H494.51V146.09H491.775V144.065H494.291V143.209H491.775V141.193H494.477V140.334H490.918V146.949Z" fill="white"/>
<path d="M496.792 146.949H497.648V144.065H500.478V146.949H501.337V140.334H500.478V143.209H497.648V140.334H496.792V146.949Z" fill="white"/>
<path d="M504.62 143.002V140.334H503.761V146.949H505.887C507.15 146.949 507.874 146.129 507.871 144.943C507.874 143.761 507.15 143.002 505.887 143.002H504.62ZM504.62 143.842H505.887C506.621 143.842 507.026 144.333 507.026 144.93C507.026 145.544 506.621 146.109 505.887 146.109H504.62V143.842Z" fill="white"/>
<path d="M544.307 163.65C544.307 161.534 543.221 160.252 541.752 160.252C540.277 160.252 539.193 161.534 539.193 163.65C539.193 165.762 540.277 167.048 541.752 167.048C543.221 167.048 544.307 165.766 544.307 163.65ZM543.459 163.65C543.459 165.262 542.727 166.137 541.752 166.137C540.773 166.137 540.044 165.262 540.044 163.65C540.044 162.038 540.773 161.163 541.752 161.163C542.727 161.163 543.459 162.038 543.459 163.65Z" fill="white"/>
<path d="M546.545 160.343V166.957H547.36V162.168H547.413L549.087 166.948H549.763L551.437 162.171H551.49V166.957H552.305V160.343H551.266L549.458 165.485H549.392L547.585 160.343H546.545Z" fill="white"/>
<path d="M559.58 162.494C559.386 161.079 558.435 160.252 557.235 160.252C555.766 160.252 554.683 161.534 554.683 163.65C554.683 165.766 555.761 167.048 557.235 167.048C558.483 167.048 559.394 166.137 559.58 164.829L558.715 164.826C558.568 165.672 557.959 166.137 557.241 166.137C556.268 166.137 555.534 165.268 555.534 163.65C555.534 162.045 556.265 161.163 557.244 161.163C557.967 161.163 558.574 161.638 558.715 162.494H559.58Z" fill="white"/>
<path d="M565.138 166.957H566.183L563.841 163.334L566.196 160.343H565.135L562.926 163.136H562.632V160.343H561.776V166.957H562.632V163.992H563.22L565.138 166.957Z" fill="white"/>
<path d="M628.541 95.1054H629.586L627.244 91.4815L629.6 88.4906H628.538L626.329 91.2844H626.035V88.4906H625.179V95.1054H626.035V92.1404H626.623L628.541 95.1054Z" fill="white"/>
<path d="M631.624 95.1054H632.481V92.7799H633.645C634.961 92.7799 635.612 91.8529 635.612 90.632C635.612 89.4143 634.967 88.4906 633.647 88.4906H631.624V95.1054ZM632.481 91.9337V89.3465H633.556C634.404 89.3465 634.75 89.8827 634.75 90.632C634.75 91.3813 634.404 91.9337 633.567 91.9337H632.481Z" fill="white"/>
<path d="M637.665 95.1054L638.186 93.3548H640.403L640.921 95.1054H641.83L639.788 88.4906H638.798L636.755 95.1054H637.665ZM638.435 92.515L639.272 89.6921H639.316L640.153 92.515H638.435Z" fill="white"/>
<path d="M648.268 90.6417C648.074 89.227 647.124 88.4001 645.924 88.4001C644.455 88.4001 643.371 89.6824 643.371 91.798C643.371 93.9136 644.449 95.1959 645.924 95.1959C647.171 95.1959 648.083 94.285 648.268 92.9769L647.404 92.9737C647.257 93.8199 646.647 94.285 645.929 94.285C644.956 94.285 644.222 93.4162 644.222 91.798C644.222 90.1927 644.954 89.311 645.932 89.311C646.655 89.311 647.262 89.7858 647.404 90.6417H648.268Z" fill="white"/>
<path d="M650.464 95.1054H651.32V92.2211H654.15V95.1054H655.009V88.4906H654.15V91.3652H651.32V88.4906H650.464V95.1054Z" fill="white"/>
<path d="M662.358 91.798C662.358 89.6824 661.272 88.4001 659.803 88.4001C658.328 88.4001 657.245 89.6824 657.245 91.798C657.245 93.9104 658.328 95.1959 659.803 95.1959C661.272 95.1959 662.358 93.9136 662.358 91.798ZM661.51 91.798C661.51 93.4097 660.778 94.285 659.803 94.285C658.824 94.285 658.095 93.4097 658.095 91.798C658.095 90.1863 658.824 89.311 659.803 89.311C660.778 89.311 661.51 90.1863 661.51 91.798Z" fill="white"/>
<path d="M668.383 95.1054V88.4906H666.359C665.043 88.4906 664.394 89.3465 664.394 90.5642C664.394 91.4524 664.741 92.1275 665.436 92.4278L664.178 95.1054H665.154L666.307 92.6022C666.326 92.6022 666.343 92.6022 666.362 92.6022H667.526V95.1054H668.383ZM667.526 91.7431H666.44C665.606 91.7431 665.256 91.3103 665.256 90.5642C665.256 89.8148 665.606 89.3465 666.451 89.3465H667.526V91.7431Z" fill="white"/>
<path d="M670.798 95.1054H671.654V92.7799H672.818C674.135 92.7799 674.786 91.8529 674.786 90.632C674.786 89.4143 674.14 88.4906 672.821 88.4906H670.798V95.1054ZM671.654 91.9337V89.3465H672.73C673.578 89.3465 673.924 89.8827 673.924 90.632C673.924 91.3813 673.578 91.9337 672.741 91.9337H671.654Z" fill="white"/>
<path d="M681.675 90.6417C681.481 89.227 680.531 88.4001 679.331 88.4001C677.862 88.4001 676.778 89.6824 676.778 91.798C676.778 93.9136 677.856 95.1959 679.331 95.1959C680.578 95.1959 681.49 94.285 681.675 92.9769L680.811 92.9737C680.664 93.8199 680.054 94.285 679.336 94.285C678.363 94.285 677.629 93.4162 677.629 91.798C677.629 90.1927 678.361 89.311 679.339 89.311C680.062 89.311 680.669 89.7858 680.811 90.6417H681.675Z" fill="white"/>
<path d="M687.233 95.1054H688.278L685.936 91.4815L688.292 88.4906H687.23L685.021 91.2844H684.727V88.4906H683.871V95.1054H684.727V92.1404H685.315L687.233 95.1054Z" fill="white"/>
<path d="M683.576 147.04H683.964C684.851 147.04 685.145 146.461 685.394 145.803L687.357 140.334H686.459L685.134 144.159L683.645 140.334H682.736L684.732 145.299L684.652 145.534C684.53 145.88 684.341 146.161 683.917 146.161H683.576V147.04Z" fill="white"/>
<path d="M688.908 146.949H689.152C690.443 146.949 690.754 145.832 690.828 143.706L690.917 141.181H692.855V146.949H693.7V140.334H690.111L690.014 143.441C689.953 145.357 689.753 146.058 689.074 146.077L688.908 146.084V146.949Z" fill="white"/>
<path d="M696.597 146.949L697.118 145.199H699.336L699.854 146.949H700.763L698.72 140.334H697.731L695.688 146.949H696.597ZM697.368 144.359L698.205 141.536H698.249L699.086 144.359H697.368Z" fill="white"/>
<path d="M702.754 146.949H703.61V144.065H706.44V146.949H707.299V140.334H706.44V143.209H703.61V140.334H702.754V146.949Z" fill="white"/>
<path d="M712.159 143.225H709.642V144.062H712.159V143.225Z" fill="white"/>
<path d="M714.407 147.04H714.795C715.682 147.04 715.976 146.461 716.225 145.803L718.187 140.334H717.289L715.965 144.159L714.476 140.334H713.567L715.563 145.299L715.482 145.534C715.36 145.88 715.172 146.161 714.748 146.161H714.407V147.04Z" fill="white"/>
<path d="M719.739 148.548H720.559V146.949H724.37V148.538H725.19V146.103H724.547V140.334H721.047L720.914 143.128C720.828 144.969 720.492 145.728 720.113 146.103H719.739V148.548ZM721.122 146.103C721.446 145.499 721.665 144.527 721.734 143.128L721.823 141.193H723.727V146.103H721.122Z" fill="white"/>
<path d="M727.119 144.85C727.227 146.103 727.931 147.04 729.3 147.04C730.67 147.04 731.545 145.848 731.545 143.994V143.306C731.545 141.452 730.658 140.244 729.253 140.244C727.917 140.244 727.227 141.193 727.116 142.473H727.989C728.078 141.613 728.425 141.103 729.253 141.103C730.165 141.103 730.675 141.962 730.678 143.299H728.585V144.146H730.675C730.639 145.312 730.201 146.193 729.3 146.193C728.449 146.193 728.086 145.722 727.989 144.85H727.119Z" fill="white"/>
<path d="M83.2646 30.8337C83.2646 32.5883 82.0441 34.0106 80.5384 34.0106C79.0328 34.0106 77.8123 32.5883 77.8123 30.8337C77.8123 29.0791 79.0328 27.6567 80.5384 27.6567C82.0441 27.6567 83.2646 29.0791 83.2646 30.8337Z" fill="#272722"/>
<path fill-rule="evenodd" clip-rule="evenodd" d="M80.5384 33.1011C81.613 33.1011 82.4841 32.0859 82.4841 30.8337C82.4841 29.5814 81.613 28.5663 80.5384 28.5663C79.4639 28.5663 78.5927 29.5814 78.5927 30.8337C78.5927 32.0859 79.4639 33.1011 80.5384 33.1011ZM80.5384 34.0106C82.0441 34.0106 83.2646 32.5883 83.2646 30.8337C83.2646 29.0791 82.0441 27.6567 80.5384 27.6567C79.0328 27.6567 77.8123 29.0791 77.8123 30.8337C77.8123 32.5883 79.0328 34.0106 80.5384 34.0106Z" fill="white"/>
<path d="M16.3293 104.65C16.3293 106.405 15.1088 107.827 13.6031 107.827C12.0975 107.827 10.877 106.405 10.877 104.65C10.877 102.896 12.0975 101.473 13.6031 101.473C15.1088 101.473 16.3293 102.896 16.3293 104.65Z" fill="#131313"/>
<path fill-rule="evenodd" clip-rule="evenodd" d="M13.6031 106.917C14.6777 106.917 15.5488 105.902 15.5488 104.65C15.5488 103.398 14.6777 102.383 13.6031 102.383C12.5286 102.383 11.6574 103.398 11.6574 104.65C11.6574 105.902 12.5286 106.917 13.6031 106.917ZM13.6031 107.827C15.1088 107.827 16.3293 106.405 16.3293 104.65C16.3293 102.896 15.1088 101.473 13.6031 101.473C12.0975 101.473 10.877 102.896 10.877 104.65C10.877 106.405 12.0975 107.827 13.6031 107.827Z" fill="white"/>
<path d="M167.774 142.026C167.774 143.781 166.553 145.203 165.047 145.203C163.542 145.203 162.321 143.781 162.321 142.026C162.321 140.272 163.542 138.849 165.047 138.849C166.553 138.849 167.774 140.272 167.774 142.026Z" fill="#4D5648"/>
<path fill-rule="evenodd" clip-rule="evenodd" d="M165.047 144.294C166.122 144.294 166.993 143.279 166.993 142.026C166.993 140.774 166.122 139.759 165.047 139.759C163.973 139.759 163.102 140.774 163.102 142.026C163.102 143.279 163.973 144.294 165.047 144.294ZM165.047 145.203C166.553 145.203 167.774 143.781 167.774 142.026C167.774 140.272 166.553 138.849 165.047 138.849C163.542 138.849 162.321 140.272 162.321 142.026C162.321 143.781 163.542 145.203 165.047 145.203Z" fill="white"/>
<path d="M192.992 161.884C192.992 163.639 191.772 165.061 190.266 165.061C188.761 165.061 187.54 163.639 187.54 161.884C187.54 160.13 188.761 158.708 190.266 158.708C191.772 158.708 192.992 160.13 192.992 161.884Z" fill="#47443E"/>
<path fill-rule="evenodd" clip-rule="evenodd" d="M190.266 164.152C191.341 164.152 192.212 163.137 192.212 161.884C192.212 160.632 191.341 159.617 190.266 159.617C189.192 159.617 188.321 160.632 188.321 161.884C188.321 163.137 189.192 164.152 190.266 164.152ZM190.266 165.061C191.772 165.061 192.992 163.639 192.992 161.884C192.992 160.13 191.772 158.708 190.266 158.708C188.761 158.708 187.54 160.13 187.54 161.884C187.54 163.639 188.761 165.061 190.266 165.061Z" fill="white"/>
<path d="M261.828 115.818C261.828 117.573 260.608 118.995 259.102 118.995C257.597 118.995 256.376 117.573 256.376 115.818C256.376 114.063 257.597 112.641 259.102 112.641C260.608 112.641 261.828 114.063 261.828 115.818Z" fill="#93A47C"/>
<path fill-rule="evenodd" clip-rule="evenodd" d="M259.102 118.085C260.177 118.085 261.048 117.07 261.048 115.818C261.048 114.566 260.177 113.551 259.102 113.551C258.028 113.551 257.156 114.566 257.156 115.818C257.156 117.07 258.028 118.085 259.102 118.085ZM259.102 118.995C260.608 118.995 261.828 117.573 261.828 115.818C261.828 114.063 260.608 112.641 259.102 112.641C257.597 112.641 256.376 114.063 256.376 115.818C256.376 117.573 257.597 118.995 259.102 118.995Z" fill="white"/>
<path d="M322.487 146.794C322.487 148.548 321.266 149.971 319.761 149.971C318.255 149.971 317.034 148.548 317.034 146.794C317.034 145.039 318.255 143.617 319.761 143.617C321.266 143.617 322.487 145.039 322.487 146.794Z" fill="#738F8C"/>
<path fill-rule="evenodd" clip-rule="evenodd" d="M319.761 149.061C320.835 149.061 321.706 148.046 321.706 146.794C321.706 145.541 320.835 144.526 319.761 144.526C318.686 144.526 317.815 145.541 317.815 146.794C317.815 148.046 318.686 149.061 319.761 149.061ZM319.761 149.971C321.266 149.971 322.487 148.548 322.487 146.794C322.487 145.039 321.266 143.617 319.761 143.617C318.255 143.617 317.034 145.039 317.034 146.794C317.034 148.548 318.255 149.971 319.761 149.971Z" fill="white"/>
<path d="M402.226 168.239C402.226 169.994 401.005 171.416 399.499 171.416C397.994 171.416 396.773 169.994 396.773 168.239C396.773 166.484 397.994 165.062 399.499 165.062C401.005 165.062 402.226 166.484 402.226 168.239Z" fill="#789186"/>
<path fill-rule="evenodd" clip-rule="evenodd" d="M399.499 170.506C400.574 170.506 401.445 169.491 401.445 168.239C401.445 166.987 400.574 165.972 399.499 165.972C398.425 165.972 397.554 166.987 397.554 168.239C397.554 169.491 398.425 170.506 399.499 170.506ZM399.499 171.416C401.005 171.416 402.226 169.994 402.226 168.239C402.226 166.484 401.005 165.062 399.499 165.062C397.994 165.062 396.773 166.484 396.773 168.239C396.773 169.994 397.994 171.416 399.499 171.416Z" fill="white"/>
<path d="M428.124 121.38C428.124 123.135 426.903 124.557 425.398 124.557C423.892 124.557 422.672 123.135 422.672 121.38C422.672 119.625 423.892 118.203 425.398 118.203C426.903 118.203 428.124 119.625 428.124 121.38Z" fill="#8CBABB"/>
<path fill-rule="evenodd" clip-rule="evenodd" d="M425.398 123.647C426.472 123.647 427.343 122.632 427.343 121.38C427.343 120.128 426.472 119.113 425.398 119.113C424.323 119.113 423.452 120.128 423.452 121.38C423.452 122.632 424.323 123.647 425.398 123.647ZM425.398 124.557C426.903 124.557 428.124 123.135 428.124 121.38C428.124 119.625 426.903 118.203 425.398 118.203C423.892 118.203 422.672 119.625 422.672 121.38C422.672 123.135 423.892 124.557 425.398 124.557Z" fill="white"/>
<path d="M472.423 157.12C472.423 158.875 471.203 160.297 469.697 160.297C468.191 160.297 466.971 158.875 466.971 157.12C466.971 155.365 468.191 153.943 469.697 153.943C471.203 153.943 472.423 155.365 472.423 157.12Z" fill="#414847"/>
<path fill-rule="evenodd" clip-rule="evenodd" d="M469.697 159.387C470.771 159.387 471.643 158.372 471.643 157.12C471.643 155.868 470.771 154.853 469.697 154.853C468.622 154.853 467.751 155.868 467.751 157.12C467.751 158.372 468.622 159.387 469.697 159.387ZM469.697 160.297C471.203 160.297 472.423 158.875 472.423 157.12C472.423 155.365 471.203 153.943 469.697 153.943C468.191 153.943 466.971 155.365 466.971 157.12C466.971 158.875 468.191 160.297 469.697 160.297Z" fill="white"/>
<path d="M554.893 145.204C554.893 146.959 553.672 148.381 552.167 148.381C550.661 148.381 549.441 146.959 549.441 145.204C549.441 143.45 550.661 142.027 552.167 142.027C553.672 142.027 554.893 143.45 554.893 145.204Z" fill="#577379"/>
<path fill-rule="evenodd" clip-rule="evenodd" d="M552.167 147.472C553.241 147.472 554.113 146.457 554.113 145.204C554.113 143.952 553.241 142.937 552.167 142.937C551.092 142.937 550.221 143.952 550.221 145.204C550.221 146.457 551.092 147.472 552.167 147.472ZM552.167 148.381C553.672 148.381 554.893 146.959 554.893 145.204C554.893 143.45 553.672 142.027 552.167 142.027C550.661 142.027 549.441 143.45 549.441 145.204C549.441 146.959 550.661 148.381 552.167 148.381Z" fill="white"/>
<path d="M660.204 102.316C660.204 104.07 658.984 105.493 657.478 105.493C655.973 105.493 654.752 104.07 654.752 102.316C654.752 100.561 655.973 99.1389 657.478 99.1389C658.984 99.1389 660.204 100.561 660.204 102.316Z" fill="#3E403A"/>
<path fill-rule="evenodd" clip-rule="evenodd" d="M657.478 104.583C658.553 104.583 659.424 103.568 659.424 102.316C659.424 101.064 658.553 100.048 657.478 100.048C656.404 100.048 655.532 101.064 655.532 102.316C655.532 103.568 656.404 104.583 657.478 104.583ZM657.478 105.493C658.984 105.493 660.204 104.07 660.204 102.316C660.204 100.561 658.984 99.1389 657.478 99.1389C655.973 99.1389 654.752 100.561 654.752 102.316C654.752 104.07 655.973 105.493 657.478 105.493Z" fill="white"/>
<path d="M709.405 127.387C709.405 129.142 708.184 130.564 706.679 130.564C705.173 130.564 703.952 129.142 703.952 127.387C703.952 125.633 705.173 124.21 706.679 124.21C708.184 124.21 709.405 125.633 709.405 127.387Z" fill="#181A19"/>
<path fill-rule="evenodd" clip-rule="evenodd" d="M706.679 129.655C707.753 129.655 708.624 128.64 708.624 127.387C708.624 126.135 707.753 125.12 706.679 125.12C705.604 125.12 704.733 126.135 704.733 127.387C704.733 128.64 705.604 129.655 706.679 129.655ZM706.679 130.564C708.184 130.564 709.405 129.142 709.405 127.387C709.405 125.633 708.184 124.21 706.679 124.21C705.173 124.21 703.952 125.633 703.952 127.387C703.952 129.142 705.173 130.564 706.679 130.564Z" fill="white"/>
</svg>
